<svg xmlns="http://www.w3.org/2000/svg" width="128" height="128" viewBox="0 0 128 128" fill="none"><path fill-rule="evenodd" clip-rule="evenodd" d="M46 88C48.2091 88 50 89.7909 50 92V93C50 101.837 42.8366 109 34 109H18C15.7909 109 14 107.209 14 105C14 102.791 15.7909 101 18 101H34C38.4183 101 42 97.4183 42 93V92C42 89.7909 43.7909 88 46 88Z" fill="#FEE9B2"></path><path fill-rule="evenodd" clip-rule="evenodd" d="M83 88C80.7909 88 79 89.7909 79 92V93C79 101.837 86.1634 109 95 109H110C112.209 109 114 107.209 114 105C114 102.791 112.209 101 110 101H95C90.5817 101 87 97.4183 87 93V92C87 89.7909 85.2091 88 83 88Z" fill="#FEE9B2"></path><path fill-rule="evenodd" clip-rule="evenodd" d="M64 88C66.2091 88 68 89.7909 68 92L68 112C68 114.209 66.2091 116 64 116C61.7909 116 60 114.209 60 112L60 92C60 89.7909 61.7909 88 64 88Z" fill="#FEE9B2"></path><path fill-rule="evenodd" clip-rule="evenodd" d="M25.1604 81.2608C25.1214 81.2609 25.0825 81.261 25.0435 81.261C11.2123 81.261 0 70.0487 0 56.2176C0 42.3864 11.2123 31.1741 25.0435 31.1741C26.0416 31.1741 27.0261 31.2325 27.9938 31.346C29.7196 13.7493 44.5585 0 62.6088 0C80.8218 0 95.7654 13.9984 97.2672 31.8231C99.095 31.3985 101 31.1741 102.957 31.1741C116.788 31.1741 128 42.3864 128 56.2176C128 70.0487 116.788 81.261 102.957 81.261C102.918 81.261 102.879 81.2609 102.84 81.2608H25.1604Z" fill="#FFBE3C"></path><circle cx="64" cy="119" r="9" fill="#FEE9B2"></circle><circle cx="18" cy="105" r="9" fill="#FEE9B2"></circle><circle cx="110" cy="105" r="9" fill="#FEE9B2"></circle></svg>