<svg xmlns="http://www.w3.org/2000/svg" width="128" height="128" viewBox="0 0 128 128" fill="none"><rect y="80" width="21" height="48" rx="4" fill="#FEE9B2"></rect><rect x="36" y="58" width="22" height="70" rx="4" fill="#FBB040"></rect><path fill-rule="evenodd" clip-rule="evenodd" d="M119.723 4.48496C120.835 5.71241 120.743 7.60963 119.515 8.72252L82.5021 42.281C81.3197 43.353 79.6131 43.6195 78.1601 42.9591L47.4169 28.9849L11.8507 56.8612C10.5466 57.8833 8.66092 57.6547 7.63884 56.3507C6.61676 55.0466 6.84533 53.1609 8.14936 52.1389L44.6715 23.5134C45.8461 22.5928 47.4355 22.4026 48.7942 23.0202L79.446 36.9528L115.485 4.27752C116.712 3.16463 118.61 3.2575 119.723 4.48496Z" fill="#FBB040"></path><rect x="70" y="70" width="20" height="58" rx="4" fill="#FEE9B2"></rect><rect x="107" y="33" width="21" height="95" rx="4" fill="#FEE9B2"></rect><circle cx="10" cy="54" r="7" fill="#FBB040"></circle><circle cx="47" cy="26" r="7" fill="#FBB040"></circle><circle cx="80" cy="40" r="7" fill="#FBB040"></circle><circle cx="117" cy="7" r="7" fill="#FBB040"></circle></svg>