<?xml version="1.0" encoding="utf-8"?>
<!-- Generator: Adobe Illustrator 26.2.1, SVG Export Plug-In . SVG Version: 6.00 Build 0)  -->
<svg version="1.1" id="Layer_1" xmlns="http://www.w3.org/2000/svg" xmlns:xlink="http://www.w3.org/1999/xlink" x="0px" y="0px"
	 viewBox="0 0 29.6 29.6" style="enable-background:new 0 0 29.6 29.6;" xml:space="preserve">
<path d="M29.1,29c-0.6,0.6-1.5,0.6-2.2,0L0.5,2.7C0.2,2.4,0,2.1,0,1.7s0.2-0.8,0.5-1.1c0.3-0.3,0.8-0.5,1.2-0.5
	c0.4,0,0.8,0.1,1.1,0.4l26.4,26.4C29.8,27.5,29.8,28.4,29.1,29z"/>
<path d="M29,2.6L2.7,29c-0.6,0.6-1.5,0.6-2.2,0c-0.6-0.6-0.6-1.5,0-2.2L26.9,0.5C27.2,0.2,27.6,0,27.9,0c0.4,0,0.8,0.2,1.1,0.5
	C29.7,1.1,29.7,2,29,2.6z"/>
</svg>
