<svg xmlns="http://www.w3.org/2000/svg" width="128" height="128" viewBox="0 0 128 128" fill="none"><g clip-path="url(#clip0_2086_2828)"><rect x="2" y="11" width="124" height="83" rx="8" stroke="#FBB040" stroke-width="4"></rect><rect x="18" width="8" height="20" rx="4" fill="#FBB040"></rect><rect x="60" width="8" height="20" rx="4" fill="#FBB040"></rect><rect x="102" width="8" height="20" rx="4" fill="#FBB040"></rect><rect x="14" y="36" width="22" height="22" rx="4" fill="#FCC96F"></rect><rect x="14" y="62" width="22" height="22" rx="4" fill="#FCC96F"></rect><rect x="40" y="36" width="22" height="22" rx="4" fill="#FCC96F"></rect><rect x="40" y="62" width="22" height="22" rx="4" fill="#FCC96F"></rect><rect x="66" y="36" width="22" height="22" rx="4" fill="#FCC96F"></rect><rect x="66" y="62" width="22" height="22" rx="4" fill="#FCC96F"></rect><rect x="92" y="36" width="22" height="22" rx="4" fill="#FCC96F"></rect><rect x="92" y="62" width="22" height="22" rx="4" fill="#FCC96F"></rect><path d="M95.0053 130H116.626C118.747 130 120.753 129.039 122.082 127.386L128.455 119.459C129.455 118.216 130 116.668 130 115.073V96.0571C130 89.9819 125.075 85.0571 119 85.0571H100.074V58.0248C100.074 55.7776 99.1723 53.9605 97.7347 52.7345C96.34 51.545 94.55 51 92.8364 51C91.1228 51 89.3328 51.545 87.938 52.7345C86.5005 53.9605 85.5993 55.7776 85.5993 58.0248V92.5916L82.5434 88.1996C81.2558 86.087 79.6261 84.6525 77.817 84.0358C75.9566 83.4016 74.0476 83.6943 72.5621 84.8028C69.5715 87.0346 69.1285 91.6432 71.6304 96.2071C75.2723 102.85 79.0736 109.414 82.8631 115.958C84.891 119.459 86.9155 122.955 88.9104 126.454C90.1571 128.641 92.4804 130 95.0053 130Z" fill="#FBB040" stroke="white" stroke-width="4"></path></g><defs><clipPath id="clip0_2086_2828"><rect width="128" height="128" fill="white"></rect></clipPath></defs></svg>