<svg xmlns="http://www.w3.org/2000/svg" width="128" height="128" viewBox="0 0 128 128" fill="none"><g clip-path="url(#clip0_2121_1758)"><path d="M0 72C0 67.5817 3.58172 64 8 64H56C60.4183 64 64 67.5817 64 72V120C64 124.418 60.4183 128 56 128H8C3.58172 128 0 124.418 0 120V72Z" fill="#FBB040"></path><path d="M36 8C36 3.58172 39.5817 0 44 0H120C124.418 0 128 3.58172 128 8V84C128 88.4183 124.418 92 120 92H44C39.5817 92 36 88.4183 36 84V8Z" fill="#FBB040"></path><path fill-rule="evenodd" clip-rule="evenodd" d="M44 -10H120C129.941 -10 138 -1.94112 138 8V84C138 93.9411 129.941 102 120 102H44C34.0589 102 26 93.9411 26 84V8C26 -1.94113 34.0589 -10 44 -10ZM44 0C39.5817 0 36 3.58172 36 8V84C36 88.4183 39.5817 92 44 92H120C124.418 92 128 88.4183 128 84V8C128 3.58172 124.418 0 120 0H44Z" fill="white"></path><path fill-rule="evenodd" clip-rule="evenodd" d="M84.1313 27.596C81.4815 27.596 79.3333 25.4478 79.3333 22.798C79.3333 20.1481 81.4815 18 84.1313 18H106.202C108.852 18 111 20.1481 111 22.798V44.8687C111 47.5185 108.852 49.6667 106.202 49.6667C103.552 49.6667 101.404 47.5185 101.404 44.8687V34.3813L24.1907 111.595C22.3169 113.468 19.279 113.468 17.4053 111.595C15.5316 109.721 15.5316 106.683 17.4053 104.809L94.6187 27.596H84.1313Z" fill="#FEE9B2"></path></g><defs><clipPath id="clip0_2121_1758"><rect width="128" height="128" fill="white"></rect></clipPath></defs></svg>