<svg xmlns="http://www.w3.org/2000/svg" width="128" height="128" viewBox="0 0 128 128" fill="none"><g clip-path="url(#clip0_2121_1863)"><rect x="6" width="115" height="95" rx="4" fill="#FBB040"></rect><rect x="48" y="68" width="32" height="47" rx="4" fill="#FBB040"></rect><rect x="35" y="109" width="58" height="6" rx="3" fill="#FBB040"></rect><rect x="13" y="9" width="102" height="72" rx="2" fill="white"></rect><path fill-rule="evenodd" clip-rule="evenodd" d="M111.524 112.75C111.471 112.802 111.423 112.857 111.38 112.914C110.993 113.429 110.99 114.138 111.376 114.657C111.421 114.718 111.471 114.776 111.526 114.83L121.777 124.94C122.362 125.516 123.306 125.515 123.886 124.943C124.466 124.37 124.468 123.439 123.883 122.863L113.633 112.753C113.583 112.704 113.53 112.659 113.475 112.618C112.912 112.197 112.117 112.224 111.585 112.693C111.564 112.711 111.544 112.73 111.524 112.75ZM108.925 117.396C106.907 115.405 106.903 112.177 108.922 110.185C110.942 108.193 114.215 108.197 116.234 110.188L126.484 120.297C128.503 122.288 128.507 125.516 126.487 127.508C124.467 129.5 121.194 129.496 119.176 127.505L108.925 117.396Z" fill="#FEE9B2"></path><path fill-rule="evenodd" clip-rule="evenodd" d="M100.648 103.601C101.328 102.847 102.431 102.847 103.111 103.601L111.054 112.415C111.19 112.565 111.298 112.734 111.38 112.914C111.627 113.461 111.626 114.111 111.376 114.657C111.295 114.834 111.188 115 111.054 115.148C110.374 115.902 109.271 115.902 108.591 115.148L100.648 106.334C99.9675 105.579 99.9675 104.356 100.648 103.601Z" fill="#FEE9B2"></path><path fill-rule="evenodd" clip-rule="evenodd" d="M102.14 100.784C102.905 100.029 104.146 100.029 104.911 100.784L113.847 109.597C114.612 110.352 114.612 111.576 113.847 112.33C113.733 112.443 113.608 112.539 113.475 112.618C112.899 112.962 112.182 112.987 111.585 112.693C111.402 112.602 111.229 112.481 111.076 112.33L102.14 103.517C101.375 102.762 101.375 101.539 102.14 100.784Z" fill="#FEE9B2"></path><path fill-rule="evenodd" clip-rule="evenodd" d="M87.9964 114.305C101.802 114.305 112.993 103.268 112.993 89.6525C112.993 76.0373 101.802 65 87.9964 65C74.1913 65 63 76.0373 63 89.6525C63 103.268 74.1913 114.305 87.9964 114.305ZM74.4269 90.3569C74.4269 82.5767 80.8219 76.2697 88.7106 76.2697C96.5992 76.2697 102.994 82.5767 102.994 90.3569C102.994 98.137 96.5992 104.444 88.7106 104.444C80.8219 104.444 74.4269 98.137 74.4269 90.3569Z" fill="#FEE9B2"></path><path d="M111.376 114.657C111.421 114.718 111.471 114.776 111.526 114.83L121.777 124.94C122.362 125.516 123.306 125.515 123.886 124.943C124.466 124.37 124.468 123.439 123.883 122.863L113.633 112.753C113.583 112.704 113.53 112.659 113.475 112.618C112.899 112.962 112.182 112.987 111.585 112.693C111.564 112.711 111.544 112.73 111.524 112.75C111.471 112.802 111.423 112.857 111.38 112.914C111.627 113.461 111.626 114.111 111.376 114.657Z" fill="#FEE9B2"></path><path fill-rule="evenodd" clip-rule="evenodd" d="M57.7979 38.9092L53.9401 47.9864C53.1556 49.8323 51.3441 51.0307 49.3384 51.0307H33C30.7909 51.0307 29 49.2399 29 47.0307C29 44.8216 30.7909 43.0307 33 43.0307H47.3537L53.7228 28.0447C55.5608 23.7199 61.8087 24.0892 63.1245 28.6004L70.4796 53.818L76.4058 45.1981C77.3386 43.8413 78.8796 43.0307 80.526 43.0307H95C97.2091 43.0307 99 44.8216 99 47.0307C99 49.2399 97.2091 51.0307 95 51.0307H82.1041L73.4901 63.5602C71.1018 67.0342 65.7503 66.1747 64.5699 62.1276L57.7979 38.9092Z" fill="#FBB040"></path></g><defs><clipPath id="clip0_2121_1863"><rect width="128" height="128" fill="white"></rect></clipPath></defs></svg>