<svg xmlns="http://www.w3.org/2000/svg" width="128" height="128" viewBox="0 0 128 128" fill="none"><path d="M25.5351 96.746C25.3404 96.746 25.1457 96.746 24.9511 96.746C24.8051 96.746 24.6347 96.7217 24.4401 96.673C20.8874 95.943 18.1377 94.921 16.1911 93.607C14.2931 92.3417 12.9547 90.7844 12.1761 88.935C11.4461 87.0857 11.0811 85.0174 11.0811 82.73L11.2271 75.284C11.2271 73.4347 10.9351 71.926 10.3511 70.758C9.81574 69.59 9.06141 68.7384 8.08808 68.203C7.11475 67.619 5.99541 67.3027 4.73008 67.254H4.43808C3.51341 67.254 2.71041 66.9377 2.02908 66.305C1.39641 65.6724 1.08008 64.8694 1.08008 63.896C1.08008 62.9227 1.39641 62.1197 2.02908 61.487C2.71041 60.8544 3.51341 60.538 4.43808 60.538H4.87608C6.09274 60.4407 7.16341 60.1244 8.08808 59.589C9.06141 59.005 9.81574 58.129 10.3511 56.961C10.9351 55.793 11.2271 54.3087 11.2271 52.508L11.0811 45.062C11.0811 43.3587 11.2757 41.777 11.6651 40.317C12.1031 38.8084 12.8087 37.47 13.7821 36.302C14.7554 35.134 16.0937 34.112 17.7971 33.236C19.5491 32.36 21.7634 31.6544 24.4401 31.119C25.8027 30.8757 26.8247 31.119 27.5061 31.849C28.1874 32.5304 28.5281 33.3577 28.5281 34.331C28.5281 34.9637 28.2847 35.5477 27.7981 36.083C27.3601 36.6184 26.7761 37.0077 26.0461 37.251C24.0994 37.9324 22.6394 38.6867 21.6661 39.514C20.6927 40.2927 20.0357 41.2417 19.6951 42.361C19.4031 43.4317 19.2571 44.7457 19.2571 46.303L19.4031 53.895C19.4031 56.7177 18.6974 58.932 17.2861 60.538C15.8747 62.0954 13.9524 63.2634 11.5191 64.042V63.75C13.9524 64.5287 15.8747 65.721 17.2861 67.327C18.6974 68.8844 19.4031 71.0744 19.4031 73.897L19.2571 81.489C19.2571 82.9977 19.4031 84.2874 19.6951 85.358C20.0357 86.4287 20.6927 87.3534 21.6661 88.132C22.6394 88.9594 24.0994 89.7624 26.0461 90.541C27.7007 91.1737 28.5281 92.1957 28.5281 93.607C28.5281 94.4344 28.2361 95.1644 27.6521 95.797C27.0681 96.4297 26.3624 96.746 25.5351 96.746Z" fill="#FCC96F"></path><path d="M100.292 96.673C99.3674 96.673 98.6617 96.2594 98.1751 95.432C97.6884 94.6534 97.4451 93.9477 97.4451 93.315C97.4451 92.6337 97.6641 92.0254 98.1021 91.49C98.5887 91.0034 99.1971 90.6384 99.9271 90.395C101.922 89.7137 103.382 88.9594 104.307 88.132C105.28 87.3534 105.913 86.4044 106.205 85.285C106.546 84.1657 106.716 82.8517 106.716 81.343L106.57 73.751C106.57 70.8797 107.276 68.6654 108.687 67.108C110.147 65.5507 112.069 64.3827 114.454 63.604V63.896C112.069 63.0687 110.147 61.8764 108.687 60.319C107.276 58.7617 106.57 56.5717 106.57 53.749L106.716 46.157C106.716 44.5997 106.546 43.31 106.205 42.288C105.913 41.2174 105.28 40.2684 104.307 39.441C103.334 38.6137 101.874 37.835 99.9271 37.105C98.2724 36.4724 97.4451 35.4504 97.4451 34.039C97.4451 33.2117 97.7371 32.4817 98.3211 31.849C98.9051 31.2164 99.6107 30.9 100.438 30.9C100.633 30.9 100.803 30.9 100.949 30.9C101.144 30.9 101.338 30.9244 101.533 30.973C105.086 31.6544 107.811 32.652 109.709 33.966C111.656 35.28 112.994 36.8617 113.724 38.711C114.503 40.5604 114.892 42.6287 114.892 44.916L114.746 52.362C114.746 54.2114 115.014 55.72 115.549 56.888C116.133 58.056 116.912 58.932 117.885 59.516C118.907 60.0514 120.026 60.3434 121.243 60.392H121.535C122.46 60.392 123.238 60.7084 123.871 61.341C124.552 61.9737 124.893 62.7767 124.893 63.75C124.893 64.7234 124.552 65.5264 123.871 66.159C123.238 66.7917 122.46 67.108 121.535 67.108H121.097C119.88 67.1567 118.785 67.473 117.812 68.057C116.887 68.641 116.133 69.517 115.549 70.685C115.014 71.8044 114.746 73.2887 114.746 75.138L114.892 82.584C114.892 84.2874 114.697 85.869 114.308 87.329C113.919 88.8377 113.213 90.176 112.191 91.344C111.218 92.512 109.855 93.534 108.103 94.41C106.4 95.286 104.21 95.9917 101.533 96.527C101.338 96.5757 101.144 96.6 100.949 96.6C100.803 96.6487 100.584 96.673 100.292 96.673Z" fill="#FCC96F"></path><path d="M64.008 53.457C62.5967 53.457 61.5017 53.092 60.723 52.362C59.993 51.5833 59.628 50.4883 59.628 49.077V47.836C59.628 46.4247 59.993 45.354 60.723 44.624C61.5017 43.8453 62.5967 43.456 64.008 43.456H64.957C66.3683 43.456 67.439 43.8453 68.169 44.624C68.9477 45.354 69.337 46.4247 69.337 47.836V49.077C69.337 50.4883 68.9477 51.5833 68.169 52.362C67.439 53.092 66.3683 53.457 64.957 53.457H64.008ZM70.797 81.416C70.797 83.022 70.3347 84.628 69.41 86.234C68.534 87.8887 67.366 89.2513 65.906 90.322C64.4947 91.4413 62.986 92.001 61.38 92.001C60.8447 92.001 60.2607 91.782 59.628 91.344C59.044 90.906 58.752 90.1517 58.752 89.081C58.752 87.9617 59.0927 87.2803 59.774 87.037C60.504 86.8423 61.1123 86.6233 61.599 86.38C62.2317 86.0393 62.7183 85.6257 63.059 85.139C63.4483 84.701 63.643 84.1413 63.643 83.46C63.643 82.9247 63.3753 82.438 62.84 82C62.3533 81.6107 61.6963 81.416 60.869 81.416C60.577 81.416 60.2363 81.4647 59.847 81.562C59.4577 81.6107 59.117 81.7323 58.825 81.927C58.3383 81.6837 57.9003 81.3917 57.511 81.051C57.1703 80.6617 57 80.0533 57 79.226C57 77.7173 57.6813 76.4277 59.044 75.357C60.4553 74.2377 62.0857 73.678 63.935 73.678C66.0277 73.678 67.6823 74.3837 68.899 75.795C70.1643 77.2063 70.797 79.08 70.797 81.416Z" fill="#FBB040"></path><path d="M41.25 24.0526C44.25 19.4474 45 15.4561 45 13C45 15.4561 45.75 19.4474 48.75 24.0526C51.6774 28.5465 56.25 30.5 57 30.5C56.25 30.5 51.6774 32.4535 48.75 36.9474C45.75 41.5526 45 45.5439 45 48C45 45.5439 44.25 41.5526 41.25 36.9474C38.3226 32.4535 33.75 30.5 33 30.5C33.75 30.5 38.3226 28.5465 41.25 24.0526Z" fill="#FBB040"></path><path d="M81.25 90.0526C84.25 85.4474 85 81.4561 85 79C85 81.4561 85.75 85.4474 88.75 90.0526C91.6774 94.5465 96.25 96.5 97 96.5C96.25 96.5 91.6774 98.4535 88.75 102.947C85.75 107.553 85 111.544 85 114C85 111.544 84.25 107.553 81.25 102.947C78.3226 98.4535 73.75 96.5 73 96.5C73.75 96.5 78.3226 94.5465 81.25 90.0526Z" fill="#FBB040"></path></svg>