<svg xmlns="http://www.w3.org/2000/svg" width="128" height="128" viewBox="0 0 128 128" fill="none"><rect width="128" height="128" rx="8" fill="#FBB040"></rect><path fill-rule="evenodd" clip-rule="evenodd" d="M14 40C14 38.8954 14.8954 38 16 38H80C81.1046 38 82 38.8954 82 40V84C82 85.1045 81.1046 86 80 86H16C14.8954 86 14 85.1045 14 84V40ZM22.4394 42L48 59.5729L73.5606 42H22.4394ZM78 43.8021L51.5303 62L78 80.1979V43.8021ZM73.5606 82L48 64.427L22.4394 82H73.5606ZM18 80.1979L44.4697 62L18 43.8021V80.1979Z" fill="white"></path><path fill-rule="evenodd" clip-rule="evenodd" d="M14 92C14 90.8954 14.8954 90 16 90H43C44.1046 90 45 90.8954 45 92V112C45 113.105 44.1046 114 43 114H16C14.8954 114 14 113.105 14 112V92ZM22.0601 94L29.5 99.5111L36.9399 94H22.0601ZM41 95.9704L32.8601 102L41 108.03V95.9704ZM36.9399 110L29.5 104.489L22.0601 110H36.9399ZM18 108.03L26.1399 102L18 95.9704V108.03Z" fill="white"></path><path fill-rule="evenodd" clip-rule="evenodd" d="M51 92C51 90.8954 51.8954 90 53 90H80C81.1046 90 82 90.8954 82 92V112C82 113.105 81.1046 114 80 114H53C51.8954 114 51 113.105 51 112V92ZM59.0601 94L66.5 99.5111L73.9399 94H59.0601ZM78 95.9704L69.8601 102L78 108.03V95.9704ZM73.9399 110L66.5 104.489L59.0601 110H73.9399ZM55 108.03L63.1399 102L55 95.9704V108.03Z" fill="white"></path><rect x="16" y="17" width="96" height="15" rx="2" fill="white"></rect><rect x="89" y="37" width="23" height="75" rx="2" fill="#FEE9B2"></rect></svg>