<?xml version="1.0" encoding="utf-8"?>
<!-- Generator: Adobe Illustrator 26.2.1, SVG Export Plug-In . SVG Version: 6.00 Build 0)  -->
<svg version="1.1" id="Layer_1" xmlns="http://www.w3.org/2000/svg" xmlns:xlink="http://www.w3.org/1999/xlink" x="0px" y="0px"
	 viewBox="0 0 804 528" style="enable-background:new 0 0 804 528;" xml:space="preserve">
<style type="text/css">
	.st0{fill:#FBB040;}
	.st1{fill:#FFFFFF;}
	.st2{fill-rule:evenodd;clip-rule:evenodd;fill:#FBB040;}
	.st3{fill-rule:evenodd;clip-rule:evenodd;fill:#E6E6E6;}
	.st4{fill:#043D81;}
	.st5{fill-rule:evenodd;clip-rule:evenodd;fill:#043D81;}
	.st6{fill-rule:evenodd;clip-rule:evenodd;fill:#FFFFFF;}
</style>
<path class="st0" d="M276,8c0-4.4,3.6-8,8-8h236c4.4,0,8,3.6,8,8v236c0,4.4-3.6,8-8,8H284c-4.4,0-8-3.6-8-8V8z"/>
<path class="st1" d="M307.5,44.1c0-7,5.6-12.6,12.6-12.6h99.2c7,0,12.6,5.6,12.6,12.6v132.3c0,7-5.6,12.6-12.6,12.6h-99.2
	c-7,0-12.6-5.6-12.6-12.6V44.1z"/>
<path class="st1" d="M326.4,64.6c0-7,5.6-12.6,12.6-12.6h99.2c7,0,12.6,5.6,12.6,12.6v132.3c0,7-5.6,12.6-12.6,12.6H339
	c-7,0-12.6-5.6-12.6-12.6V64.6z"/>
<path class="st2" d="M339,45.7h99.2c10.4,0,18.9,8.5,18.9,18.9v132.3c0,10.4-8.5,18.9-18.9,18.9H339c-10.4,0-18.9-8.5-18.9-18.9
	V64.6C320.1,54.1,328.6,45.7,339,45.7z M339,52c-7,0-12.6,5.6-12.6,12.6v132.3c0,7,5.6,12.6,12.6,12.6h99.2c7,0,12.6-5.6,12.6-12.6
	V64.6c0-7-5.6-12.6-12.6-12.6H339z"/>
<path class="st3" d="M350,83.5c0-3.5,2.8-6.3,6.3-6.3h64.6c3.5,0,6.3,2.8,6.3,6.3s-2.8,6.3-6.3,6.3h-64.6
	C352.8,89.8,350,87,350,83.5z"/>
<path class="st3" d="M350,115c0-3.5,2.8-6.3,6.3-6.3h64.6c3.5,0,6.3,2.8,6.3,6.3c0,3.5-2.8,6.3-6.3,6.3h-64.6
	C352.8,121.3,350,118.5,350,115z"/>
<path class="st3" d="M350,146.5c0-3.5,2.8-6.3,6.3-6.3h64.6c3.5,0,6.3,2.8,6.3,6.3c0,3.5-2.8,6.3-6.3,6.3h-64.6
	C352.8,152.8,350,150,350,146.5z"/>
<path class="st3" d="M350,178c0-3.5,2.8-6.3,6.3-6.3h64.6c3.5,0,6.3,2.8,6.3,6.3c0,3.5-2.8,6.3-6.3,6.3h-64.6
	C352.8,184.3,350,181.5,350,178z"/>
<path class="st4" d="M429.3,173.4c23.9,0,43.3-19.4,43.3-43.3s-19.4-43.3-43.3-43.3c-23.9,0-43.3,19.4-43.3,43.3
	S405.3,173.4,429.3,173.4z"/>
<path class="st2" d="M429.3,90c-22.2,0-40.1,18-40.1,40.1s18,40.1,40.1,40.1c22.2,0,40.1-18,40.1-40.1S451.4,90,429.3,90z
	 M382.8,130.2c0-25.6,20.8-46.4,46.4-46.4c25.6,0,46.4,20.8,46.4,46.4s-20.8,46.4-46.4,46.4C403.6,176.6,382.8,155.8,382.8,130.2z"
	/>
<path class="st4" d="M474.9,167.6c-2.2-2.2-5.8-2.2-8.1,0c-2.2,2.2-2.2,5.8,0,8.1l17.6,17.6c2.2,2.2,5.8,2.2,8.1,0
	c2.2-2.2,2.2-5.8,0-8.1L474.9,167.6z"/>
<path class="st5" d="M469.1,169.9c-1,1-1,2.6,0,3.6l17.6,17.6c1,1,2.6,1,3.6,0c1-1,1-2.6,0-3.6l-17.6-17.6
	C471.7,168.9,470.1,168.9,469.1,169.9z M464.6,177.9c-3.5-3.5-3.5-9.1,0-12.5c3.5-3.5,9.1-3.5,12.5,0l17.6,17.6
	c3.5,3.5,3.5,9.1,0,12.5c-3.5,3.5-9.1,3.5-12.5,0L464.6,177.9z"/>
<path class="st5" d="M449.4,154.4c1.2-1.2,3.2-1.2,4.5,0l14.4,14.4c1.2,1.2,1.2,3.2,0,4.5c-1.2,1.2-3.2,1.2-4.5,0l-14.4-14.4
	C448.1,157.6,448.1,155.6,449.4,154.4z"/>
<path class="st5" d="M453.6,150.1c1.2-1.2,3.2-1.2,4.5,0l14.4,14.4c1.2,1.2,1.2,3.2,0,4.5c-1.2,1.2-3.2,1.2-4.5,0l-14.4-14.4
	C452.3,153.4,452.3,151.4,453.6,150.1z"/>
<path class="st1" d="M429.3,151.5c11.8,0,21.3-9.5,21.3-21.3c0-11.8-9.5-21.3-21.3-21.3c-11.8,0-21.3,9.5-21.3,21.3
	C407.9,141.9,417.5,151.5,429.3,151.5z"/>
<path class="st5" d="M429.3,112c-10,0-18.2,8.1-18.2,18.2s8.1,18.2,18.2,18.2c10,0,18.2-8.1,18.2-18.2S439.3,112,429.3,112z
	 M404.8,130.2c0-13.5,11-24.5,24.5-24.5c13.5,0,24.5,11,24.5,24.5s-11,24.5-24.5,24.5C415.7,154.6,404.8,143.7,404.8,130.2z"/>
<path class="st0" d="M0,8c0-4.4,3.6-8,8-8h236c4.4,0,8,3.6,8,8v236c0,4.4-3.6,8-8,8H8c-4.4,0-8-3.6-8-8V8z"/>
<path class="st1" d="M125.1,182.7v-17c0-6.4,3.3-12.2,8.7-15.4c14.2-8.4,23.7-24,23.7-42c0-27.9-23-50.3-50.6-48.3
	C83.5,61.6,64.6,81,63.1,105c-1.3,19.4,8.6,36.5,23.8,45.4c5.4,3.1,8.6,9.1,8.6,15.5v16.9"/>
<path class="st4" d="M153.3,173.4c23.9,0,43.3-19.4,43.3-43.3s-19.4-43.3-43.3-43.3c-23.9,0-43.3,19.4-43.3,43.3
	S129.3,173.4,153.3,173.4z"/>
<path class="st2" d="M153.3,90c-22.2,0-40.1,18-40.1,40.1s18,40.1,40.1,40.1c22.2,0,40.1-18,40.1-40.1S175.4,90,153.3,90z
	 M106.8,130.2c0-25.6,20.8-46.4,46.4-46.4c25.6,0,46.4,20.8,46.4,46.4s-20.8,46.4-46.4,46.4C127.6,176.6,106.8,155.8,106.8,130.2z"
	/>
<path class="st4" d="M198.9,167.6c-2.2-2.2-5.8-2.2-8.1,0c-2.2,2.2-2.2,5.8,0,8.1l17.6,17.6c2.2,2.2,5.8,2.2,8.1,0
	c2.2-2.2,2.2-5.8,0-8.1L198.9,167.6z"/>
<path class="st5" d="M193.1,169.9c-1,1-1,2.6,0,3.6l17.6,17.6c1,1,2.6,1,3.6,0c1-1,1-2.6,0-3.6l-17.6-17.6
	C195.7,168.9,194.1,168.9,193.1,169.9z M188.6,177.9c-3.5-3.5-3.5-9.1,0-12.5c3.5-3.5,9.1-3.5,12.5,0l17.6,17.6
	c3.5,3.5,3.5,9.1,0,12.5c-3.5,3.5-9.1,3.5-12.5,0L188.6,177.9z"/>
<path class="st5" d="M173.4,154.4c1.2-1.2,3.2-1.2,4.5,0l14.4,14.4c1.2,1.2,1.2,3.2,0,4.5c-1.2,1.2-3.2,1.2-4.5,0l-14.4-14.4
	C172.1,157.6,172.1,155.6,173.4,154.4z"/>
<path class="st5" d="M177.6,150.1c1.2-1.2,3.2-1.2,4.5,0l14.4,14.4c1.2,1.2,1.2,3.2,0,4.5c-1.2,1.2-3.2,1.2-4.5,0l-14.4-14.4
	C176.3,153.4,176.3,151.4,177.6,150.1z"/>
<path class="st1" d="M153.3,151.5c11.8,0,21.3-9.5,21.3-21.3c0-11.8-9.5-21.3-21.3-21.3c-11.8,0-21.3,9.5-21.3,21.3
	C131.9,141.9,141.5,151.5,153.3,151.5z"/>
<path class="st5" d="M153.3,112c-10,0-18.2,8.1-18.2,18.2s8.1,18.2,18.2,18.2c10,0,18.2-8.1,18.2-18.2S163.3,112,153.3,112z
	 M128.8,130.2c0-13.5,11-24.5,24.5-24.5c13.5,0,24.5,11,24.5,24.5s-11,24.5-24.5,24.5C139.7,154.6,128.8,143.7,128.8,130.2z"/>
<path class="st3" d="M85.1,182.7c0-2.6,2.1-4.7,4.7-4.7h41c2.6,0,4.7,2.1,4.7,4.7c0,2.6-2.1,4.7-4.7,4.7h-41
	C87.2,187.4,85.1,185.3,85.1,182.7z"/>
<path class="st3" d="M85.1,200c0-2.6,2.1-4.7,4.7-4.7h41c2.6,0,4.7,2.1,4.7,4.7c0,2.6-2.1,4.7-4.7,4.7h-41
	C87.2,204.8,85.1,202.6,85.1,200z"/>
<path class="st6" d="M26.8,110.2c0-2.6,2.1-4.7,4.7-4.7h12.6c2.6,0,4.7,2.1,4.7,4.7c0,2.6-2.1,4.7-4.7,4.7H31.5
	C28.9,115,26.8,112.9,26.8,110.2z"/>
<path class="st6" d="M110.2,26.8c2.6,0,4.7,2.1,4.7,4.7v12.6c0,2.6-2.1,4.7-4.7,4.7s-4.7-2.1-4.7-4.7V31.5
	C105.5,28.9,107.6,26.8,110.2,26.8z"/>
<path class="st6" d="M49.9,52.1c1.7-2,4.6-2.3,6.7-0.6l9.5,7.9c2,1.7,2.3,4.7,0.6,6.7S62,68.3,60,66.6l-9.5-7.9
	C48.5,57.1,48.2,54.1,49.9,52.1z"/>
<path class="st6" d="M66.6,154.5c1.7,2,1.4,5-0.6,6.7l-9.5,7.9c-2,1.7-5,1.4-6.7-0.6c-1.7-2-1.4-5,0.6-6.7l9.5-7.9
	C62,152.2,65,152.5,66.6,154.5z"/>
<path class="st6" d="M169,52.1c1.7,2,1.4,5-0.6,6.7l-9.4,7.9c-2,1.7-5,1.4-6.7-0.6c-1.7-2-1.4-5,0.6-6.7l9.5-7.9
	C164.4,49.8,167.3,50.1,169,52.1z"/>
<path class="st0" d="M276,284c0-4.4,3.6-8,8-8h236c4.4,0,8,3.6,8,8v236c0,4.4-3.6,8-8,8H284c-4.4,0-8-3.6-8-8V284z"/>
<path class="st3" d="M353.9,308.9c-1.6-0.7-3.5,0-4.2,1.6l-2.5,5.4c-2-0.4-4-0.5-5.9-0.2l-2.4-6.4c-0.6-1.6-2.4-2.5-4-1.9l-2.2,0.8
	c-1.6,0.6-2.5,2.4-1.9,4l2.4,6.4c-1.6,1.1-3.1,2.4-4.4,4l-5.4-2.5c-1.6-0.7-3.5,0-4.2,1.6l-1,2.1c-0.7,1.6,0,3.5,1.6,4.2l5.4,2.5
	c-0.3,1.7-0.4,3.4-0.3,5l-5.8,2.2c-1.6,0.6-2.5,2.4-1.9,4.1l0.8,2.2c0.6,1.6,2.4,2.5,4.1,1.9l5.4-2c1.2,1.9,2.7,3.7,4.5,5.1
	l-2.5,5.4c-0.7,1.6,0,3.5,1.6,4.2l2.1,1c1.6,0.7,3.5,0,4.2-1.6l2.5-5.4c2,0.4,4,0.5,5.9,0.2l1.8,4.7c0.6,1.6,2.4,2.5,4,1.9l2.2-0.8
	c1.6-0.6,2.5-2.4,1.9-4.1l-1.8-4.7c1.6-1.1,3.1-2.4,4.4-4l5.4,2.5c1.6,0.7,3.5,0,4.2-1.6l1-2.1c0.7-1.6,0-3.5-1.6-4.2l-5.4-2.5
	c0.5-2.3,0.5-4.6,0.1-6.8l5.4-2c1.6-0.6,2.5-2.4,1.9-4.1l-0.8-2.2c-0.6-1.6-2.4-2.5-4-1.9l-5.8,2.2c-1-1.3-2.2-2.5-3.5-3.6l2.5-5.4
	c0.7-1.6,0-3.5-1.6-4.2L353.9,308.9z M338.9,344.6c5.8,2.6,12.6,0.1,15.2-5.7c2.6-5.8,0.1-12.6-5.7-15.2c-5.8-2.6-12.6-0.1-15.2,5.7
	C330.6,335.2,333.1,342,338.9,344.6z"/>
<path class="st6" d="M375,351.6c-3.5,0-6.3,2.8-6.3,6.3v18c-5.2,1.2-10.2,3.3-14.6,6.1l-14.4-14.4c-2.5-2.5-6.4-2.5-8.9,0l-7.3,7.3
	c-2.5,2.5-2.5,6.4,0,8.9l14.4,14.4c-2.8,4.5-4.8,9.4-6.1,14.6h-18c-3.5,0-6.3,2.8-6.3,6.3v10.3c0,3.5,2.8,6.3,6.3,6.3h18
	c1,4.4,2.7,8.6,4.8,12.5l-13.2,13.2c-2.5,2.5-2.5,6.4,0,8.9l7.3,7.3c2.5,2.5,6.4,2.5,8.9,0l12.4-12.4c5,3.4,10.6,6,16.7,7.4v18
	c0,3.5,2.8,6.3,6.3,6.3h10.3c3.5,0,6.3-2.8,6.3-6.3v-18c5.2-1.2,10.2-3.3,14.6-6.1l11,11c2.5,2.5,6.4,2.5,8.9,0l7.3-7.3
	c2.5-2.5,2.5-6.4,0-8.9l-11-11c2.8-4.5,4.8-9.4,6.1-14.6h18c3.5,0,6.3-2.8,6.3-6.3v-10.3c0-3.5-2.8-6.3-6.3-6.3h-18
	c-1.4-6.1-4-11.7-7.4-16.7l12.4-12.4c2.5-2.5,2.5-6.4,0-8.9l-7.3-7.3c-2.5-2.5-6.5-2.5-8.9,0l-13.2,13.2c-3.9-2.1-8.1-3.8-12.5-4.8
	v-18c0-3.5-2.8-6.3-6.3-6.3H375z M380.1,454.8c16.9,0,30.6-13.7,30.6-30.6s-13.7-30.6-30.6-30.6c-16.9,0-30.6,13.7-30.6,30.6
	S363.3,454.8,380.1,454.8z"/>
<path class="st4" d="M429.5,420.8c23.9,0,43.3-19.4,43.3-43.3s-19.4-43.3-43.3-43.3s-43.3,19.4-43.3,43.3S405.6,420.8,429.5,420.8z"
	/>
<path class="st2" d="M429.5,337.4c-22.2,0-40.1,18-40.1,40.1c0,22.2,18,40.1,40.1,40.1s40.1-18,40.1-40.1
	C469.7,355.4,451.7,337.4,429.5,337.4z M383.1,377.6c0-25.6,20.8-46.4,46.4-46.4s46.4,20.8,46.4,46.4c0,25.6-20.8,46.4-46.4,46.4
	S383.1,403.2,383.1,377.6z"/>
<path class="st4" d="M475.2,415c-2.2-2.2-5.8-2.2-8.1,0c-2.2,2.2-2.2,5.8,0,8.1l17.6,17.6c2.2,2.2,5.8,2.2,8.1,0
	c2.2-2.2,2.2-5.8,0-8.1L475.2,415z"/>
<path class="st5" d="M469.4,417.3c-1,1-1,2.6,0,3.6l17.6,17.6c1,1,2.6,1,3.6,0c1-1,1-2.6,0-3.6L473,417.3
	C472,416.3,470.3,416.3,469.4,417.3z M464.9,425.3c-3.5-3.5-3.5-9.1,0-12.5c3.5-3.5,9.1-3.5,12.5,0l17.6,17.6
	c3.5,3.5,3.5,9.1,0,12.5c-3.5,3.5-9.1,3.5-12.5,0L464.9,425.3z"/>
<path class="st5" d="M449.6,401.8c1.2-1.2,3.2-1.2,4.5,0l14.4,14.4c1.2,1.2,1.2,3.2,0,4.5s-3.2,1.2-4.5,0l-14.4-14.4
	C448.4,405,448.4,403,449.6,401.8z"/>
<path class="st5" d="M453.8,397.5c1.2-1.2,3.2-1.2,4.5,0l14.4,14.4c1.2,1.2,1.2,3.2,0,4.5c-1.2,1.2-3.2,1.2-4.5,0L453.8,402
	C452.6,400.8,452.6,398.8,453.8,397.5z"/>
<path class="st1" d="M429.5,398.9c11.8,0,21.3-9.5,21.3-21.3c0-11.8-9.5-21.3-21.3-21.3s-21.3,9.5-21.3,21.3
	C408.2,389.3,417.8,398.9,429.5,398.9z"/>
<path class="st5" d="M429.5,359.4c-10,0-18.2,8.1-18.2,18.2c0,10,8.1,18.2,18.2,18.2c10,0,18.2-8.1,18.2-18.2
	C447.7,367.5,439.6,359.4,429.5,359.4z M405.1,377.6c0-13.5,11-24.5,24.5-24.5s24.5,11,24.5,24.5c0,13.5-11,24.5-24.5,24.5
	S405.1,391.1,405.1,377.6z"/>
<path class="st5" d="M399.2,408c-2.4-2.4-6.3-2.4-8.7,0l-15.2,15.2l-5.5-5.5c-2.4-2.4-6.3-2.4-8.7,0l-2.2,2.2
	c-2.4,2.4-2.4,6.3,0,8.7l12,12c2.4,2.4,6.3,2.4,8.7,0l2.2-2.2c0.1-0.1,0.2-0.2,0.2-0.3l19.3-19.3c2.4-2.4,2.4-6.3,0-8.7L399.2,408z"
	/>
<path class="st0" d="M0,284c0-4.4,3.6-8,8-8h236c4.4,0,8,3.6,8,8v236c0,4.4-3.6,8-8,8H8c-4.4,0-8-3.6-8-8V284z"/>
<path class="st1" d="M58.3,346.9c0-7,5.6-12.6,12.6-12.6h110.2c7,0,12.6,5.6,12.6,12.6v110.2c0,7-5.6,12.6-12.6,12.6H70.9
	c-7,0-12.6-5.6-12.6-12.6V346.9z"/>
<path class="st5" d="M86.2,377.8c-2,2.8-1.4,6.8,1.4,8.8l21.3,15.4l-21.3,15.4c-2.8,2-3.5,6-1.4,8.8c2,2.8,6,3.5,8.8,1.4l28.4-20.5
	c1.6-1.2,2.6-3.1,2.6-5.1s-1-3.9-2.6-5.1L95,376.4C92.2,374.4,88.3,375,86.2,377.8z"/>
<path class="st5" d="M126,424c0-3.5,2.8-6.3,6.3-6.3h29.9c3.5,0,6.3,2.8,6.3,6.3c0,3.5-2.8,6.3-6.3,6.3h-29.9
	C128.8,430.4,126,427.5,126,424z"/>
<path class="st0" d="M552,8c0-4.4,3.6-8,8-8h236c4.4,0,8,3.6,8,8v236c0,4.4-3.6,8-8,8H560c-4.4,0-8-3.6-8-8V8z"/>
<path class="st3" d="M660.7,48.8h86.6v58.3c0,3.5-2.8,6.3-6.3,6.3s-6.3-2.8-6.3-6.3V61.4h-61.4v34.6c0,3.5-2.8,6.3-6.3,6.3
	s-6.3-2.8-6.3-6.3V48.8z"/>
<path class="st5" d="M676.4,145.7c0-26.5,21.5-48,48-48c26.5,0,48,21.5,48,48c0,26.5-21.5,48-48,48c-3.5,0-6.3-2.8-6.3-6.3
	s2.8-6.3,6.3-6.3c19.6,0,35.4-15.9,35.4-35.4s-15.9-35.4-35.4-35.4c-19.6,0-35.4,15.9-35.4,35.4c0,3.5-2.8,6.3-6.3,6.3
	S676.4,149.2,676.4,145.7z"/>
<path class="st1" d="M706.1,212.4c-1.6,0-3.2-0.3-4.7-0.8l-39.5-14.5c-2.4-0.9-4.5-2.4-6.1-4.5l-62.3-81.3c-2.2-2.9-3.1-6.4-2.7-10
	c0.5-3.6,2.3-6.8,5.2-8.9l36-27.3c2.4-1.8,5.2-2.8,8.2-2.8c4.3,0,8.2,1.9,10.8,5.3l62.3,81.3c1.6,2,2.5,4.5,2.7,7.1l3.6,41.7
	c0.3,3.8-0.9,7.5-3.5,10.3C713.6,210.8,709.9,212.4,706.1,212.4L706.1,212.4z"/>
<path class="st0" d="M640.2,66.3c2.9,0,5.7,1.3,7.6,3.7l62.3,81.3c1.1,1.4,1.8,3.2,1.9,5l3.6,41.7c0.5,5.8-4.2,10.3-9.5,10.3
	c-1.1,0-2.2-0.2-3.3-0.6l-39.5-14.5c-1.7-0.6-3.2-1.7-4.3-3.2l-62.3-81.3c-3.2-4.2-2.4-10.2,1.8-13.3l36-27.3
	C636.2,66.9,638.2,66.3,640.2,66.3L640.2,66.3z M640.2,58.3c-3.9,0-7.6,1.2-10.7,3.6l-36,27.3c-7.7,5.9-9.2,16.9-3.3,24.6l62.3,81.3
	c2,2.7,4.8,4.7,7.9,5.8l39.5,14.5c2,0.7,4,1.1,6.1,1.1c4.9,0,9.6-2.1,13-5.7c3.4-3.7,5-8.4,4.6-13.3l-3.6-41.7
	c-0.3-3.3-1.5-6.5-3.5-9.2l-62.3-81.3C650.9,60.8,645.8,58.3,640.2,58.3L640.2,58.3z"/>
<path class="st4" d="M702.7,207.3l-8.9-3.2c5.2-7.1,12.7-12.5,21.3-15.1l0.8,8.6C716.4,204.5,709.4,209.7,702.7,207.3z"/>
<path class="st3" d="M635.8,51.3c2.1,2.8,1.5,6.7-1.3,8.8l-44.1,33.1c-2.8,2.1-6.7,1.5-8.8-1.3s-1.5-6.7,1.3-8.8L627,50.1
	C629.8,48,633.7,48.6,635.8,51.3z"/>
<path class="st3" d="M612.7,94.3c2.7-2.1,6.7-1.6,8.8,1.1l55.1,70.9c2.1,2.7,1.6,6.7-1.1,8.8c-2.7,2.1-6.7,1.6-8.8-1.1l-55.1-70.9
	C609.5,100.3,610,96.4,612.7,94.3z"/>
<path class="st3" d="M630.1,80c2.8-2.1,6.7-1.6,8.8,1.2l55.1,72.4c2.1,2.8,1.6,6.7-1.2,8.8c-2.8,2.1-6.7,1.6-8.8-1.2l-55.1-72.5
	C626.8,86.1,627.3,82.1,630.1,80z"/>
<path class="st0" d="M552,284c0-4.4,3.6-8,8-8h236c4.4,0,8,3.6,8,8v236c0,4.4-3.6,8-8,8H560c-4.4,0-8-3.6-8-8V284z"/>
<path class="st3" d="M625.8,378.8c2.4-1,5.2,0.1,6.2,2.5l22,52c1,2.4-0.1,5.2-2.5,6.2c-2.4,1-5.2-0.1-6.2-2.5l-22-52
	C622.2,382.5,623.4,379.8,625.8,378.8z"/>
<path class="st3" d="M593.6,379.1c2.2-1.4,5.1-0.7,6.5,1.5l37.8,61.4c1.4,2.2,0.7,5.1-1.5,6.5c-2.2,1.4-5.1,0.7-6.5-1.5l-37.8-61.4
	C590.7,383.4,591.4,380.4,593.6,379.1z"/>
<path class="st3" d="M731.8,378.8c-2.4-1-5.2,0.1-6.2,2.5l-22,52c-1,2.4,0.1,5.2,2.5,6.2c2.4,1,5.2-0.1,6.2-2.5l22-52
	C735.3,382.5,734.2,379.8,731.8,378.8z"/>
<path class="st3" d="M762.4,379.1c-2.2-1.4-5.1-0.7-6.5,1.5L718.1,442c-1.4,2.2-0.7,5.1,1.5,6.5c2.2,1.4,5.1,0.7,6.5-1.5l37.8-61.4
	C765.3,383.4,764.6,380.4,762.4,379.1z"/>
<path class="st3" d="M678,384.7c2.6,0,4.7,2.1,4.7,4.7v31.5c0,2.6-2.1,4.7-4.7,4.7s-4.7-2.1-4.7-4.7v-31.5
	C673.3,386.8,675.4,384.7,678,384.7z"/>
<path class="st5" d="M687.1,439.3c-2,2.8-1.4,6.8,1.4,8.8l21.3,15.4l-21.3,15.4c-2.8,2-3.5,6-1.4,8.8c2,2.8,6,3.5,8.8,1.4l28.3-20.5
	c1.6-1.2,2.6-3.1,2.6-5.1c0-2-1-3.9-2.6-5.1l-28.3-20.5C693,435.8,689.1,436.4,687.1,439.3z"/>
<path class="st5" d="M670.6,439.4c2,2.9,1.2,6.8-1.6,8.8l-22.3,15.3l22.3,15.3c2.9,2,3.6,5.9,1.6,8.8c-2,2.9-5.9,3.6-8.8,1.6
	l-29.9-20.5c-1.7-1.2-2.7-3.1-2.7-5.2c0-2.1,1-4,2.7-5.2l29.9-20.5C664.7,435.8,668.6,436.5,670.6,439.4z"/>
<path class="st1" d="M767.9,379.9c1.6,4.7-5.4,8.2-9.8,6.1c-2.8-1.3-5.9-2.2-9.2-2.2c-8.1,0-14.8,5.2-19,9.5c-2.4,2.5-6.8,2.5-9.2,0
	c-4.2-4.3-10.9-9.5-19-9.5s-14.8,5.2-19,9.5c-2.4,2.5-6.8,2.5-9.2,0c-4.2-4.3-10.9-9.5-19-9.5s-14.8,5.2-19,9.5
	c-2.4,2.5-6.8,2.5-9.2,0c-4.2-4.3-10.9-9.5-19-9.5c-3.3,0-6.4,0.9-9.2,2.2c-4.5,2.1-11.4-1.4-9.8-6.1c8.3-24.2,30.8-62.9,89.9-62.9
	C737.2,317,759.7,355.7,767.9,379.9z"/>
</svg>
