<svg xmlns="http://www.w3.org/2000/svg" width="160" height="160" viewBox="0 0 160 160" fill="none"><path d="M0 8C0 3.58172 3.58172 0 8 0H152C156.418 0 160 3.58172 160 8V152C160 156.418 156.418 160 152 160H8C3.58172 160 0 156.418 0 152V8Z" fill="#FBB040"></path><path d="M37 45C37 40.5817 40.5817 37 45 37H115C119.418 37 123 40.5817 123 45V115C123 119.418 119.418 123 115 123H45C40.5817 123 37 119.418 37 115V45Z" fill="white"></path><path fill-rule="evenodd" clip-rule="evenodd" d="M54.7573 64.658C53.4639 66.4489 53.8671 68.9493 55.658 70.2427L69.1681 80L55.658 89.7573C53.8671 91.0507 53.4639 93.551 54.7573 95.3419C56.0507 97.1329 58.5511 97.5361 60.342 96.2427L78.342 83.2427C79.3832 82.4907 80 81.2844 80 80C80 78.7156 79.3832 77.5093 78.342 76.7573L60.342 63.7573C58.5511 62.4638 56.0507 62.8671 54.7573 64.658Z" fill="#043D81"></path><path fill-rule="evenodd" clip-rule="evenodd" d="M80 94C80 91.7909 81.7909 90 84 90H103C105.209 90 107 91.7909 107 94C107 96.2091 105.209 98 103 98H84C81.7909 98 80 96.2091 80 94Z" fill="#043D81"></path></svg>