<svg xmlns="http://www.w3.org/2000/svg" width="160" height="160" viewBox="0 0 160 160" fill="none"><path d="M0 8C0 3.58172 3.58172 0 8 0H152C156.418 0 160 3.58172 160 8V152C160 156.418 156.418 160 152 160H8C3.58172 160 0 156.418 0 152V8Z" fill="#FBB040"></path><path fill-rule="evenodd" clip-rule="evenodd" d="M69 31H124V68C124 70.2091 122.209 72 120 72C117.791 72 116 70.2091 116 68V39H77V60.9881C77 63.1973 75.2091 64.9881 73 64.9881C70.7909 64.9881 69 63.1973 69 60.9881V31Z" fill="#E6E6E6"></path><path fill-rule="evenodd" clip-rule="evenodd" d="M79 92.5C79 75.6508 92.6508 62 109.5 62C126.349 62 140 75.6508 140 92.5C140 109.35 126.34 123 109.5 123C107.291 123 105.5 121.209 105.5 119C105.5 116.791 107.291 115 109.5 115C121.923 115 132 104.93 132 92.5C132 80.069 121.931 70 109.5 70C97.069 70 87 80.069 87 92.5C87 94.7091 85.2091 96.5 83 96.5C80.7909 96.5 79 94.7091 79 92.5Z" fill="#043D81"></path><path d="M97.8506 134.838C96.8345 134.838 95.827 134.66 94.8537 134.303L69.7602 125.113C68.2148 124.544 66.8743 123.559 65.8753 122.259L26.3267 70.663C24.9265 68.837 24.3288 66.5778 24.6362 64.3016C24.9435 62.0254 26.1218 60.004 27.9575 58.6196L50.7884 41.3019C52.3082 40.1468 54.1183 39.5438 56.0223 39.5438C58.746 39.5438 61.2476 40.7753 62.8955 42.9241L102.444 94.5205C103.443 95.82 104.041 97.3742 104.186 99.0049L106.457 125.512C106.662 127.941 105.868 130.26 104.22 132.044C102.581 133.819 100.258 134.838 97.8591 134.838H97.8506Z" fill="white"></path><path d="M56.0222 42.0918C57.8494 42.0918 59.6595 42.9156 60.8548 44.4699L100.403 96.0663C101.104 96.9836 101.53 98.0707 101.624 99.2173L103.895 125.725C104.211 129.385 101.257 132.29 97.8505 132.29C97.1589 132.29 96.4502 132.171 95.7416 131.908L70.6395 122.718C69.5552 122.319 68.6074 121.622 67.9073 120.714L28.3587 69.1172C26.3266 66.4589 26.8389 62.6709 29.5028 60.6495L52.3423 43.3233C53.4437 42.491 54.7415 42.0833 56.0222 42.0833V42.0918ZM56.0222 36.9873C53.5547 36.9873 51.2067 37.7772 49.2344 39.272L26.4035 56.5897C21.4941 60.3183 20.5463 67.3167 24.286 72.2003L63.8346 123.797C65.1239 125.487 66.8656 126.761 68.8721 127.5L93.9742 136.689C95.2293 137.148 96.5356 137.386 97.8505 137.386C100.967 137.386 103.972 136.069 106.098 133.768C108.233 131.449 109.266 128.442 109.001 125.3L106.73 98.7926C106.551 96.6778 105.774 94.6649 104.476 92.9832L64.9275 41.3783C62.793 38.5926 59.5399 36.9958 56.0137 36.9958L56.0222 36.9873Z" fill="#FBB040"></path><path d="M95.6604 131.621L90 129.594C93.2917 125.056 98.0378 121.68 103.498 120L103.977 125.446C104.36 129.849 99.9188 133.148 95.6604 131.621Z" fill="#043D81"></path><path fill-rule="evenodd" clip-rule="evenodd" d="M53.2 32.6C54.5255 34.3673 54.1673 36.8745 52.4 38.2L24.4 59.2C22.6327 60.5255 20.1255 60.1673 18.8 58.4C17.4745 56.6327 17.8327 54.1255 19.6 52.8L47.6 31.8C49.3673 30.4745 51.8745 30.8327 53.2 32.6Z" fill="#E6E6E6"></path><path fill-rule="evenodd" clip-rule="evenodd" d="M38.5442 59.8426C40.288 58.4863 42.8011 58.8004 44.1573 60.5442L79.1573 105.544C80.5136 107.288 80.1995 109.801 78.4557 111.157C76.7119 112.514 74.1988 112.2 72.8425 110.456L37.8425 65.4558C36.4863 63.712 36.8004 61.1989 38.5442 59.8426Z" fill="#E6E6E6"></path><path fill-rule="evenodd" clip-rule="evenodd" d="M49.5779 50.8167C51.336 49.479 53.8456 49.8198 55.1833 51.5779L90.1833 97.5779C91.521 99.336 91.1802 101.846 89.4221 103.183C87.664 104.521 85.1543 104.18 83.8167 102.422L48.8167 56.4221C47.479 54.664 47.8198 52.1544 49.5779 50.8167Z" fill="#E6E6E6"></path></svg>