<svg xmlns="http://www.w3.org/2000/svg" width="80" height="80" viewBox="0 0 80 80" fill="none"><g clip-path="url(#clip0_2114_3234)"><path fill-rule="evenodd" clip-rule="evenodd" d="M64.9688 6.94414L6.94123 64.9717L15.0283 73.0587L73.0558 15.0312L64.9688 6.94414ZM67.7972 1.28729C66.2351 -0.274808 63.7024 -0.274806 62.1403 1.28729L1.28438 62.1432C-0.277716 63.7053 -0.277716 66.238 1.28438 67.8001L12.1999 78.7156C13.762 80.2777 16.2946 80.2777 17.8567 78.7156L78.7127 17.8596C80.2748 16.2975 80.2748 13.7649 78.7127 12.2028L67.7972 1.28729Z" fill="#FBB040"></path><path d="M26.7322 10.8284C25.1701 9.26634 22.6374 9.26634 21.0753 10.8284L10.8283 21.0754C9.26621 22.6375 9.26621 25.1702 10.8283 26.7323L62.9244 78.8284C63.6746 79.5785 64.692 80 65.7529 80H75.9998C78.209 80 79.9998 78.2091 79.9998 76L79.9999 65.753C79.9999 64.6921 79.5784 63.6747 78.8283 62.9245L26.7322 10.8284Z" fill="#FBB040"></path><path d="M2.26606 18.1748C1.01455 16.9232 1.01455 14.8941 2.26606 13.6426L13.6426 2.26607C14.8941 1.01456 16.9232 1.01456 18.1747 2.26607C19.4263 3.51758 19.4263 5.54669 18.1747 6.7982L6.79819 18.1748C5.54668 19.4263 3.51757 19.4263 2.26606 18.1748Z" fill="#FBB040"></path><path fill-rule="evenodd" clip-rule="evenodd" d="M23.1511 56.6792C24.3227 55.5076 26.2222 55.5076 27.3938 56.6792L30.9293 60.2147C32.1009 61.3863 32.1009 63.2858 30.9293 64.4574C29.7577 65.6289 27.8582 65.6289 26.6867 64.4574L23.1511 60.9218C21.9796 59.7502 21.9796 57.8508 23.1511 56.6792Z" fill="#FBB040"></path><path fill-rule="evenodd" clip-rule="evenodd" d="M59.9212 19.9097C61.0927 18.7381 62.9922 18.7381 64.1638 19.9097L67.6993 23.4452C68.8709 24.6168 68.8709 26.5163 67.6993 27.6878C66.5278 28.8594 64.6283 28.8594 63.4567 27.6878L59.9212 24.1523C58.7496 22.9807 58.7496 21.0812 59.9212 19.9097Z" fill="#FBB040"></path></g><defs><clipPath id="clip0_2114_3234"><rect width="80" height="80" fill="white"></rect></clipPath></defs></svg>