<svg xmlns="http://www.w3.org/2000/svg" width="32" height="32" viewBox="0 0 32 32" fill="none"><path fill-rule="evenodd" clip-rule="evenodd" d="M28.8 2.4H3.2C2.75817 2.4 2.4 2.75817 2.4 3.2V28.8C2.4 29.2418 2.75817 29.6 3.2 29.6H28.8C29.2418 29.6 29.6 29.2418 29.6 28.8V3.2C29.6 2.75817 29.2418 2.4 28.8 2.4ZM3.2 0C1.43269 0 0 1.43269 0 3.2V28.8C0 30.5673 1.43269 32 3.2 32H28.8C30.5673 32 32 30.5673 32 28.8V3.2C32 1.43269 30.5673 0 28.8 0H3.2Z" fill="#043D81"></path><path fill-rule="evenodd" clip-rule="evenodd" d="M32 8.79999L0 8.79999L0 6.39999L32 6.39999V8.79999Z" fill="#043D81"></path><path d="M6.3999 4.60001C6.3999 5.15229 5.95219 5.60001 5.3999 5.60001C4.84762 5.60001 4.3999 5.15229 4.3999 4.60001C4.3999 4.04772 4.84762 3.60001 5.3999 3.60001C5.95219 3.60001 6.3999 4.04772 6.3999 4.60001Z" fill="#FBB040"></path><path d="M10.7998 4.60001C10.7998 5.15229 10.3521 5.60001 9.7998 5.60001C9.24752 5.60001 8.7998 5.15229 8.7998 4.60001C8.7998 4.04772 9.24752 3.60001 9.7998 3.60001C10.3521 3.60001 10.7998 4.04772 10.7998 4.60001Z" fill="#043D81"></path><path d="M15.2002 4.60001C15.2002 5.15229 14.7525 5.60001 14.2002 5.60001C13.6479 5.60001 13.2002 5.15229 13.2002 4.60001C13.2002 4.04772 13.6479 3.60001 14.2002 3.60001C14.7525 3.60001 15.2002 4.04772 15.2002 4.60001Z" fill="#043D81"></path><path fill-rule="evenodd" clip-rule="evenodd" d="M20.7998 17.4C20.7998 17.4977 20.797 17.5948 20.7915 17.6911C21.0513 17.6315 21.3219 17.6 21.5998 17.6C23.588 17.6 25.1998 19.2118 25.1998 21.2C25.1998 23.1882 23.588 24.8 21.5998 24.8H10.3998C8.41158 24.8 6.7998 23.1882 6.7998 21.2C6.7998 19.2118 8.41158 17.6 10.3998 17.6C10.5367 17.6 10.6718 17.6076 10.8047 17.6225C10.8014 17.5487 10.7998 17.4746 10.7998 17.4C10.7998 14.6386 13.0384 12.4 15.7998 12.4C18.5612 12.4 20.7998 14.6386 20.7998 17.4Z" fill="#FFBE3C"></path></svg>