<svg xmlns="http://www.w3.org/2000/svg" width="80" height="80" viewBox="0 0 80 80" fill="none"><g clip-path="url(#clip0_2110_2505)"><path fill-rule="evenodd" clip-rule="evenodd" d="M26 16C24.3431 16 23 14.6569 23 13L23 3C23 1.34315 24.3431 -3.22909e-08 26 -7.21238e-08C27.6569 -1.11957e-07 29 1.34315 29 3L29 13C29 14.6569 27.6569 16 26 16Z" fill="#FBB040"></path><path fill-rule="evenodd" clip-rule="evenodd" d="M64 22C64 20.3431 65.3431 19 67 19L77 19C78.6569 19 80 20.3431 80 22C80 23.6569 78.6569 25 77 25L67 25C65.3431 25 64 23.6569 64 22Z" fill="#FBB040"></path><path fill-rule="evenodd" clip-rule="evenodd" d="M26 80C24.3431 80 23 78.6569 23 77L23 67C23 65.3431 24.3431 64 26 64C27.6569 64 29 65.3431 29 67L29 77C29 78.6569 27.6569 80 26 80Z" fill="#FBB040"></path><path fill-rule="evenodd" clip-rule="evenodd" d="M-5.90104e-08 22C-2.64199e-08 20.3431 1.34315 19 3 19L13 19C14.6569 19 16 20.3431 16 22C16 23.6569 14.6569 25 13 25L3 25C1.34315 25 -9.16009e-08 23.6569 -5.90104e-08 22Z" fill="#FBB040"></path><path fill-rule="evenodd" clip-rule="evenodd" d="M40 16C38.3431 16 37 14.6569 37 13L37 3C37 1.34315 38.3431 -3.22909e-08 40 -7.21238e-08C41.6569 -1.11957e-07 43 1.34315 43 3L43 13C43 14.6569 41.6569 16 40 16Z" fill="#FBB040"></path><path fill-rule="evenodd" clip-rule="evenodd" d="M64 37C64 35.3431 65.3431 34 67 34L77 34C78.6569 34 80 35.3431 80 37C80 38.6569 78.6569 40 77 40L67 40C65.3431 40 64 38.6569 64 37Z" fill="#FBB040"></path><path fill-rule="evenodd" clip-rule="evenodd" d="M40 80C38.3431 80 37 78.6569 37 77L37 67C37 65.3431 38.3431 64 40 64C41.6569 64 43 65.3431 43 67L43 77C43 78.6569 41.6569 80 40 80Z" fill="#FBB040"></path><path fill-rule="evenodd" clip-rule="evenodd" d="M-5.90104e-08 37C-2.64199e-08 35.3431 1.34315 34 3 34L13 34C14.6569 34 16 35.3431 16 37C16 38.6569 14.6569 40 13 40L3 40C1.34315 40 -9.16009e-08 38.6569 -5.90104e-08 37Z" fill="#FBB040"></path><path fill-rule="evenodd" clip-rule="evenodd" d="M55 16C53.3431 16 52 14.6569 52 13L52 3C52 1.34315 53.3431 -3.22909e-08 55 -7.21238e-08C56.6569 -1.11957e-07 58 1.34315 58 3L58 13C58 14.6569 56.6569 16 55 16Z" fill="#FBB040"></path><path fill-rule="evenodd" clip-rule="evenodd" d="M64 52C64 50.3431 65.3431 49 67 49L77 49C78.6569 49 80 50.3431 80 52C80 53.6569 78.6569 55 77 55L67 55C65.3431 55 64 53.6569 64 52Z" fill="#FBB040"></path><path fill-rule="evenodd" clip-rule="evenodd" d="M55 80C53.3431 80 52 78.6569 52 77L52 67C52 65.3431 53.3431 64 55 64C56.6569 64 58 65.3431 58 67L58 77C58 78.6569 56.6569 80 55 80Z" fill="#FBB040"></path><path fill-rule="evenodd" clip-rule="evenodd" d="M-5.90104e-08 52C-2.64199e-08 50.3431 1.34315 49 3 49L13 49C14.6569 49 16 50.3431 16 52C16 53.6569 14.6569 55 13 55L3 55C1.34315 55 -9.16009e-08 53.6569 -5.90104e-08 52Z" fill="#FBB040"></path><path fill-rule="evenodd" clip-rule="evenodd" d="M18.3706 10.3704C13.9523 10.3704 10.3706 13.9521 10.3706 18.3704V61.6296C10.3706 66.0479 13.9523 69.6296 18.3706 69.6296H61.6299C66.0481 69.6296 69.6299 66.0479 69.6299 61.6296V18.3704C69.6299 13.9521 66.0481 10.3704 61.6299 10.3704H18.3706ZM50.0002 40C50.0002 45.5228 45.5231 50 40.0002 50C34.4774 50 30.0002 45.5228 30.0002 40C30.0002 34.4771 34.4774 30 40.0002 30C45.5231 30 50.0002 34.4771 50.0002 40ZM56.0002 40C56.0002 48.8365 48.8368 56 40.0002 56C31.1637 56 24.0002 48.8365 24.0002 40C24.0002 31.1634 31.1637 24 40.0002 24C48.8368 24 56.0002 31.1634 56.0002 40Z" fill="#FBB040"></path></g><defs><clipPath id="clip0_2110_2505"><rect width="80" height="80" fill="white"></rect></clipPath></defs></svg>