<svg xmlns="http://www.w3.org/2000/svg" width="120" height="120" viewBox="0 0 120 120" fill="none"><path fill-rule="evenodd" clip-rule="evenodd" d="M58.1314 36C57.0269 36 56.1314 36.8954 56.1314 38V43.987C54.4058 44.3946 52.7859 45.0755 51.3197 45.9815L46.5271 41.1889C45.746 40.4078 44.4797 40.4078 43.6986 41.1889L41.1889 43.6986C40.4078 44.4797 40.4078 45.746 41.1889 46.5271L45.9814 51.3196C45.0753 52.7858 44.3943 54.4059 43.9867 56.1316H38C36.8954 56.1316 36 57.027 36 58.1316L36 61.681C36 62.7855 36.8954 63.681 38 63.681H43.9867C44.33 65.1346 44.8673 66.5133 45.5698 67.7882L41.1889 72.1691C40.4079 72.9501 40.4079 74.2164 41.1889 74.9975L43.6987 77.5072C44.4798 78.2883 45.7461 78.2883 46.5271 77.5072L50.6441 73.3903C52.2824 74.5177 54.1363 75.3543 56.1314 75.8256V81.8125C56.1314 82.9171 57.0269 83.8125 58.1314 83.8125H61.6808C62.7854 83.8125 63.6808 82.9171 63.6808 81.8125V75.8255C65.4064 75.4178 67.0264 74.7369 68.4926 73.8308L72.169 77.5072C72.9501 78.2883 74.2164 78.2883 74.9974 77.5072L77.5072 74.9974C78.2883 74.2164 78.2883 72.9501 77.5072 72.169L73.8307 68.4925C74.7366 67.0264 75.4175 65.4065 75.8251 63.681H81.8125C82.9171 63.681 83.8125 62.7855 83.8125 61.681V58.1316C83.8125 57.027 82.9171 56.1316 81.8125 56.1316H75.8251C75.3539 54.1366 74.5173 52.2827 73.3899 50.6445L77.5073 46.5271C78.2883 45.746 78.2883 44.4797 77.5073 43.6987L74.9975 41.1889C74.2165 40.4078 72.9501 40.4079 72.1691 41.1889L67.7878 45.5702C66.5129 44.8678 65.1343 44.3305 63.6808 43.9871V38C63.6808 36.8954 62.7854 36 61.6808 36H58.1314ZM59.9061 69.9721C65.4652 69.9721 69.9719 65.4655 69.9719 59.9063C69.9719 54.3471 65.4652 49.8405 59.9061 49.8405C54.3469 49.8405 49.8403 54.3471 49.8403 59.9063C49.8403 65.4655 54.3469 69.9721 59.9061 69.9721Z" fill="#043D81"></path><circle cx="59.625" cy="59.625" r="41.625" stroke="#FBB040" stroke-width="4"></circle><path d="M64.75 18C64.75 20.5228 62.5587 22.75 59.625 22.75C56.6913 22.75 54.5 20.5228 54.5 18C54.5 15.4772 56.6913 13.25 59.625 13.25C62.5587 13.25 64.75 15.4772 64.75 18Z" fill="#FBB040" stroke="#043D81" stroke-width="4"></path><circle cx="30.1248" cy="30.6992" r="6.90625" transform="rotate(-45 30.1248 30.6992)" fill="#FBB040"></circle><path d="M64.75 102C64.75 104.523 62.5587 106.75 59.625 106.75C56.6913 106.75 54.5 104.523 54.5 102C54.5 99.4772 56.6913 97.25 59.625 97.25C62.5587 97.25 64.75 99.4772 64.75 102Z" fill="#FBB040" stroke="#043D81" stroke-width="4"></path><ellipse cx="89.3008" cy="89.8752" rx="6.90625" ry="6.90625" transform="rotate(-45 89.3008 89.8752)" fill="#FBB040"></ellipse><path d="M22.75 59.625C22.75 62.5587 20.5228 64.75 18 64.75C15.4772 64.75 13.25 62.5587 13.25 59.625C13.25 56.6913 15.4772 54.5 18 54.5C20.5228 54.5 22.75 56.6913 22.75 59.625Z" fill="#FBB040" stroke="#043D81" stroke-width="4"></path><ellipse cx="30.1248" cy="89.3008" rx="6.90625" ry="6.90625" transform="rotate(-45 30.1248 89.3008)" fill="#FBB040"></ellipse><path d="M106.75 59.625C106.75 62.5587 104.523 64.75 102 64.75C99.4772 64.75 97.25 62.5587 97.25 59.625C97.25 56.6913 99.4772 54.5 102 54.5C104.523 54.5 106.75 56.6913 106.75 59.625Z" fill="#FBB040" stroke="#043D81" stroke-width="4"></path><circle cx="89.3008" cy="30.1248" r="6.90625" transform="rotate(-45 89.3008 30.1248)" fill="#FBB040"></circle><path fill-rule="evenodd" clip-rule="evenodd" d="M62 21.75C62 20.6454 61.1046 19.75 60 19.75C58.8954 19.75 58 20.6454 58 21.75V32.321C58.6605 32.2739 59.3275 32.25 60 32.25C60.6725 32.25 61.3395 32.2739 62 32.321V21.75ZM78.1485 39.0067C79.158 39.8801 80.1038 40.8252 80.9781 41.8339C83.3795 39.4372 85.8867 36.9354 88.5329 34.2956C89.3148 33.5155 89.3163 32.2491 88.5362 31.4671C87.7561 30.6852 86.4898 30.6837 85.7078 31.4638C83.06 34.1053 80.5513 36.6086 78.1485 39.0067ZM87.679 58C87.7261 58.6605 87.75 59.3275 87.75 60C87.75 60.6725 87.7261 61.3395 87.679 62H99C100.105 62 101 61.1046 101 60C101 58.8954 100.105 58 99 58H87.679ZM80.9857 78.1573C80.1118 79.1664 79.1664 80.1118 78.1573 80.9857L87.8358 90.6642C88.6168 91.4453 89.8832 91.4453 90.6642 90.6642C91.4453 89.8832 91.4453 88.6168 90.6642 87.8358L80.9857 78.1573ZM62 87.679C61.3395 87.7261 60.6725 87.75 60 87.75C59.3275 87.75 58.6605 87.7261 58 87.679V102C58 103.105 58.8954 104 60 104C61.1046 104 62 103.105 62 102V87.679ZM41.832 80.9764C40.8233 80.102 39.8783 79.1561 39.005 78.1465C35.855 81.302 32.5337 84.6299 28.9592 88.2123C28.179 88.9942 28.1804 90.2606 28.9623 91.0408C29.7443 91.821 31.0106 91.8196 31.7908 91.0376C35.3636 87.4569 38.6834 84.1305 41.832 80.9764ZM32.321 62C32.2739 61.3395 32.25 60.6725 32.25 60C32.25 59.3275 32.2739 58.6605 32.321 58H18.75C17.6454 58 16.75 58.8954 16.75 60C16.75 61.1046 17.6454 62 18.75 62H32.321ZM39.0143 41.8427C39.8882 40.8336 40.8336 39.8882 41.8427 39.0143L33.9189 31.0905C33.1378 30.3094 31.8715 30.3094 31.0905 31.0905C30.3094 31.8715 30.3094 33.1378 31.0905 33.9189L39.0143 41.8427Z" fill="#FBB040"></path></svg>