<?xml version="1.0" encoding="utf-8"?>
<!-- Generator: Adobe Illustrator 26.2.1, SVG Export Plug-In . SVG Version: 6.00 Build 0)  -->
<svg version="1.1" id="Layer_1" xmlns="http://www.w3.org/2000/svg" xmlns:xlink="http://www.w3.org/1999/xlink" x="0px" y="0px"
	 viewBox="0 0 178.6 57.9" style="enable-background:new 0 0 178.6 57.9;" xml:space="preserve">
<style type="text/css">
	.st0{fill-rule:evenodd;clip-rule:evenodd;fill:#FFFFFF;}
	.st1{fill:#FFFFFF;}
</style>
<path class="st0" d="M111.9,21.8c0.9-0.1,1.7,0.1,2.5,0.4s1.5,0.8,2.1,1.5c0,0.1,0.1,0.1,0.1,0.1c0.1,0,0.1,0.1,0.2,0.1
	c0.1,0,0.2-0.1,0.2-0.2V17h2.4v19H117v-1.5c0-0.1-0.1-0.2-0.2-0.2c-0.1,0-0.2,0.1-0.3,0.2c-0.6,0.7-1.3,1.2-2.1,1.5
	c-0.8,0.3-1.6,0.5-2.5,0.4c-3.3,0-6.8-2.2-6.8-7.3S108.6,21.8,111.9,21.8L111.9,21.8z M112.3,34.2c2.7,0,4.8-1.8,4.8-5.1
	c0-3.3-2-5.1-4.8-5.1c-2.8,0-4.8,1.8-4.8,5.1C107.6,32.4,109.5,34.2,112.3,34.2z"/>
<path class="st1" d="M73.7,18.5h2.4v3.6h4v2.1h-4v9.1c0,0.1,0,0.1,0,0.2c0,0.1,0,0.1,0.1,0.1c0,0,0.1,0.1,0.1,0.1c0.1,0,0.1,0,0.2,0
	H80v2.1h-2.4c-2.7,0-4-1.3-4-4V18.5z"/>
<path class="st1" d="M39.4,33.3V22.2h2.5v11.4c-0.1,0.7-0.4,1.4-1,1.9c-0.5,0.5-1.3,0.8-2,0.8c-0.5,0-1.1-0.2-1.5-0.5
	c-0.5-0.3-0.8-0.7-1.1-1.2l-4.2-9.3l-0.4-0.9c-0.1-0.1-0.2-0.3-0.3-0.4c-0.1-0.1-0.3-0.1-0.4-0.2c-0.2,0-0.4,0.1-0.6,0.3
	c-0.2,0.2-0.3,0.4-0.3,0.6v8.3c0,0.6-0.2,1.2-0.5,1.8c-0.3,0.5-0.8,0.9-1.4,1.1c-0.7,0.3-1.4,0.3-2.1,0c-0.7-0.3-1.2-0.8-1.5-1.5
	l-4.4-9.8c0-0.1-0.1-0.2-0.2-0.2c-0.1-0.1-0.2-0.1-0.3-0.1h-2.9v9c0,0.1,0,0.1,0,0.2c0,0.1,0,0.1,0.1,0.1c0,0,0.1,0.1,0.1,0.1
	c0.1,0,0.1,0,0.2,0h3.6V36h-2.4c-2.7,0-4-1.3-4-4V18.6h2.4v3.6h3.9c0.2,0,0.4,0.1,0.6,0.2c0.2,0.1,0.3,0.3,0.4,0.5l4.8,10.6
	c0,0.1,0.1,0.2,0.2,0.3c0.1,0.1,0.2,0.1,0.3,0.1c0.1,0,0.2,0,0.3,0c0.1,0,0.2-0.1,0.2-0.2c0.1-0.1,0.1-0.1,0.2-0.2
	c0-0.1,0.1-0.2,0.1-0.3v-8.3c0-0.5,0.1-0.9,0.3-1.3c0.2-0.4,0.5-0.8,0.9-1.1c0.6-0.4,1.3-0.7,2-0.6c0.6,0,1.1,0.2,1.6,0.5
	c0.5,0.3,0.9,0.7,1.1,1.3v0.1l4.6,9.9c0.1,0.1,0.2,0.2,0.3,0.3c0.1,0.1,0.2,0.1,0.4,0.1C39.2,34,39.4,33.7,39.4,33.3z"/>
<path class="st1" d="M59.1,22.3V36l2.4,0v-7.1c0-3.3,1.6-4.9,4.2-4.9c2.4,0,3.7,1.3,3.7,3.8V36h2.4v-8.6c0-3.6-2.1-5.5-5.5-5.5
	c-0.8-0.1-1.6,0.1-2.4,0.4c-0.7,0.3-1.4,0.8-1.9,1.5c0,0,0,0.1-0.1,0.1c-0.1,0.1-0.1,0.1-0.2,0.1c-0.2,0-0.2-0.1-0.2-0.2v-1.5H59.1z
	"/>
<path class="st1" d="M80.9,22.2v0.5L85.5,36h1c0.2,0,0.2,0,0.3,0.1c0.1,0.1,0.1,0.2,0,0.4l-0.7,2c0,0.1-0.1,0.2-0.2,0.3
	c-0.1,0.1-0.2,0.1-0.3,0.1h-3.9V41h2.2c2.9,0,4.2-0.8,5.1-3.4l5.2-14.8v-0.5h-2.4l-3.9,11.5C87.7,34,87.6,34,87.5,34
	c-0.2,0-0.2,0-0.3-0.2l-3.9-11.5H80.9z"/>
<path class="st0" d="M128.7,36.4c4.4,0,6.1-2.7,6.6-4.8l-2.5,0c-0.4,1.6-1.5,2.7-4.1,2.7c-2.5,0-4.5-1.5-4.6-4.6h11.1v-1.4
	c0-3.9-2.4-6.6-6.6-6.6c-4.2,0-6.9,2.7-6.9,7.3C121.7,33.6,124.1,36.4,128.7,36.4z M132.8,27.8h-8.7c0.1-1.1,0.6-2.1,1.5-2.8
	c0.8-0.7,1.9-1.1,3-1C131.1,23.9,132.7,25.2,132.8,27.8z"/>
<path class="st0" d="M141.9,27.9l5-0.2V27c0-2-1-3.1-3.4-3.1c-2.4,0-3.4,1.1-3.5,2.6h-2.5c0.1-2.6,2-4.6,5.9-4.6s5.7,2,5.7,5.3V36
	h-2.3v-1.5c0,0,0,0,0-0.1c0,0,0,0,0-0.1c0,0,0,0-0.1,0c0,0,0,0-0.1,0c-0.1,0-0.2,0-0.3,0.2c-0.5,0.6-1.2,1.1-1.9,1.4
	c-0.7,0.3-1.5,0.5-2.3,0.4c-3.4,0-5.4-1.8-5.4-4.4C136.9,29.5,138.4,28.1,141.9,27.9L141.9,27.9z M142.5,34.3c2.6,0,4.4-1.5,4.4-4.4
	v-0.2l-5,0.2c-1.8,0.1-2.6,0.8-2.6,2C139.2,33.4,140.4,34.3,142.5,34.3L142.5,34.3z"/>
<path class="st1" d="M160.9,26.6h2.4l0-0.1c-0.3-3.3-2.8-4.8-6.1-4.8c-3.2,0-5.5,1.4-5.5,4s1.9,3.5,4.6,4.1l2,0.4
	c1.9,0.4,2.8,0.8,2.8,2s-1,2.1-3.2,2.1c-2.3,0-3.8-0.9-4-2.7h-2.4c0.2,3.3,2.8,4.8,6.4,4.8c3.5,0,5.6-1.5,5.6-4.2
	c0-2.7-2.2-3.5-4.7-4l-2-0.4c-1.9-0.4-2.7-0.8-2.7-1.9c0-1.1,0.9-2,3.1-2C159.5,23.8,160.7,24.7,160.9,26.6z"/>
<path class="st0" d="M57.2,31.6c-0.4,2.1-2.2,4.8-6.5,4.8c-4.6,0-7-2.7-7-7.3c0-4.6,2.7-7.3,6.9-7.3c4.2,0,6.5,2.7,6.5,6.6v1.4H46
	c0.2,3.1,2.1,4.6,4.6,4.6c2.5,0,3.6-1.1,4.1-2.7L57.2,31.6z M46.1,27.8h8.7c-0.1-2.5-1.7-3.9-4.2-3.9c-1.1-0.1-2.2,0.3-3,1
	C46.7,25.7,46.2,26.7,46.1,27.8z"/>
<path class="st1" d="M102.4,36h-2.4V22.1h2.4V36z"/>
<path class="st1" d="M102.4,20.1h-2.4V17h2.4V20.1z"/>
</svg>
