<svg xmlns="http://www.w3.org/2000/svg" width="80" height="80" viewBox="0 0 80 80" fill="none"><path fill-rule="evenodd" clip-rule="evenodd" d="M72 6H8C6.89543 6 6 6.89543 6 8V72C6 73.1046 6.89543 74 8 74H72C73.1046 74 74 73.1046 74 72V8C74 6.89543 73.1046 6 72 6ZM8 0C3.58172 0 0 3.58172 0 8V72C0 76.4183 3.58172 80 8 80H72C76.4183 80 80 76.4183 80 72V8C80 3.58172 76.4183 0 72 0H8Z" fill="#043D81"></path><path fill-rule="evenodd" clip-rule="evenodd" d="M80 22L0 22L0 16L80 16V22Z" fill="#043D81"></path><path d="M16 11.5C16 12.8807 14.8807 14 13.5 14C12.1193 14 11 12.8807 11 11.5C11 10.1193 12.1193 9 13.5 9C14.8807 9 16 10.1193 16 11.5Z" fill="#FBB040"></path><path d="M27 11.5C27 12.8807 25.8807 14 24.5 14C23.1193 14 22 12.8807 22 11.5C22 10.1193 23.1193 9 24.5 9C25.8807 9 27 10.1193 27 11.5Z" fill="#043D81"></path><path d="M38 11.5C38 12.8807 36.8807 14 35.5 14C34.1193 14 33 12.8807 33 11.5C33 10.1193 34.1193 9 35.5 9C36.8807 9 38 10.1193 38 11.5Z" fill="#043D81"></path><path d="M40 30C26.7541 30 19.5121 39.8273 17.2569 45.3328C17.0808 45.7628 17.0808 46.2372 17.2569 46.6672C19.5121 52.1727 26.7541 62 40 62C53.1995 62 60.2618 52.2414 62.6963 46.7252C62.9014 46.2605 62.9014 45.7395 62.6963 45.2748C60.2618 39.7586 53.1995 30 40 30Z" fill="#FBB040"></path><circle cx="40" cy="46" r="9" fill="white"></circle></svg>