<svg xmlns="http://www.w3.org/2000/svg" xmlns:xlink="http://www.w3.org/1999/xlink" id="a" x="0px" y="0px" viewBox="0 0 25.9 40" style="enable-background:new 0 0 25.9 40;" xml:space="preserve"><style type="text/css">	.st0{fill:#5281A6;}	.st1{fill:#528CA7;}	.st2{fill:#53ADAA;}	.st3{fill:#4ECCAA;}	.st4{fill:#FFB21D;}	.st5{fill:#FF9727;}	.st6{fill:#FF8C2F;}	.st7{fill:#FF701D;}</style><g>	<g>		<path class="st0" d="M18,13.3c0,1.6-0.3,3.2-0.8,4.6c-0.3,0.8-0.7,1.6-1.1,2.3c-1,1.6-2.2,2.9-3.7,4c-2.2,1.5-4.9,2.4-7.7,2.4H0   c0.9-1.2,2.1-1.9,2.2-3.9c0-0.5,0.1-1,0.1-1.4c0.1-0.5,0.2-0.9,0.3-1.3c0.3-1.5,1.1-2.7,1.8-3.7c0.1-0.2,0.3-0.3,0.4-0.5   C6.3,14.4,8,13.3,8,13.3s-1.7-1-3.1-2.6C3.9,9.8,3,8.4,2.6,6.6C2.5,5.9,2.3,5,2.2,3.9C2.1,1.9,0.9,1.2,0,0h4.5c1,0,2.1,0.1,3,0.3   C13.5,1.7,18,7,18,13.3L18,13.3z"></path>		<path class="st1" d="M18,13.3c0,1.6-0.3,3.2-0.8,4.6c-0.3,0.8-0.7,1.6-1.1,2.3c-1,1.6-2.2,2.9-3.7,4c-4.7-0.6-7.7-1.7-9.9-2.9   c0.1-0.5,0.2-0.9,0.3-1.3c0.3-1.5,1.1-2.7,1.8-3.7c0.1-0.2,0.3-0.3,0.4-0.5C6.3,14.4,8,13.3,8,13.3s-1.7-1-3.1-2.6   C3.9,9.8,3,8.4,2.6,6.6C2.5,5.9,2.3,5,2.2,3.9C2.1,1.9,0.9,1.2,0,0h4.5c1,0,2.1,0.1,3,0.3C13.5,1.7,18,7,18,13.3L18,13.3z"></path>		<path class="st2" d="M18,13.3c0,1.6-0.3,3.2-0.8,4.6c-0.3,0.8-0.7,1.6-1.1,2.3c-2.7-0.4-5-0.9-5.6-1c-1.3-0.4-3.8-1.4-6-2.9   c0.1-0.2,0.3-0.3,0.4-0.5C6.3,14.4,8,13.3,8,13.3s-1.7-1-3.1-2.6C3.9,9.8,3,8.4,2.6,6.6C2.5,5.9,2.3,5,2.2,3.9   C2.1,1.9,0.9,1.2,0,0h4.5c1,0,2.1,0.1,3,0.3C13.5,1.7,18,7,18,13.3L18,13.3z"></path>		<path class="st3" d="M18,13.3c0,1.6-0.3,3.2-0.8,4.6c-1.9-0.9-3.9-2.7-5.4-4.6C8.3,9,7.4,3.8,7.6,0.3C13.5,1.7,18,7,18,13.3   L18,13.3z"></path>	</g>	<g>		<path class="st4" d="M25.9,26.7c0,5.8-3.8,10.8-9,12.6v0l0,0C15.5,39.7,14,40,12.5,40H8c0.9-1.2,2.1-1.9,2.2-3.9   c0.1-1.1,0.2-2,0.4-2.8c0.4-1.7,1.3-3.1,2.2-4.1c1.4-1.5,3.1-2.6,3.1-2.6s-1.7-1-3.1-2.6c-0.9-1-1.8-2.4-2.2-4.1   c-0.1-0.6-0.3-1.2-0.3-1.9c0-0.3-0.1-0.6-0.1-0.9c0-0.6-0.2-1.1-0.4-1.6c-0.2-0.4-0.5-0.8-0.8-1.2c0,0,0,0,0,0   c-0.3-0.4-0.7-0.7-1-1.2h4.5c3,0,5.9,1,8.1,2.7h0c2.5,1.9,4.4,4.7,5.1,7.8C25.8,24.8,25.9,25.7,25.9,26.7L25.9,26.7z"></path>		<path class="st5" d="M25.9,26.7c0,5.8-3.8,10.8-9,12.6c0-0.1,1.9-5.9,0-11.3c-1.9-5.5-3.4-7.5-6.7-9.8c0-0.3-0.1-0.6-0.1-0.9   c0-0.6-0.2-1.1-0.4-1.6c-0.2-0.4-0.5-0.8-0.8-1.2l0,0h0c-0.3-0.4-0.7-0.7-1-1.2h4.5c3,0,5.9,1,8.1,2.7h0c2.5,1.9,4.4,4.7,5.1,7.8   C25.8,24.8,25.9,25.7,25.9,26.7L25.9,26.7z"></path>		<path class="st6" d="M25.6,23.9c-0.7-0.8-3.5-3.3-7.2-5.2c-3.7-1.9-6-2.7-8.6-3c-0.2-0.4-0.5-0.8-0.8-1.2l0,0h0   c-0.3-0.4-0.7-0.7-1-1.2h4.5c3,0,5.9,1,8.1,2.7h0C23.1,17.9,24.9,20.7,25.6,23.9z"></path>		<path class="st7" d="M12.5,13.3c3,0,5.9,1,8.1,2.7c-3.2-1.1-8.1-1.7-11.6-1.5c-0.3-0.4-0.7-0.7-1-1.2H12.5z"></path>	</g></g></svg>