<svg xmlns="http://www.w3.org/2000/svg" width="128" height="128" viewBox="0 0 128 128" fill="none"><g clip-path="url(#clip0_2121_1804)"><rect x="33" y="42" width="63" height="62" rx="31" fill="#FBB040"></rect><path d="M20.4351 68C16.8772 68 14.1009 71.0784 14.467 74.6174L19.6394 124.617C19.9558 127.676 22.5329 130 25.6076 130H103.392C106.467 130 109.044 127.676 109.361 124.617L114.533 74.6174C114.899 71.0784 112.123 68 108.565 68H20.4351Z" fill="#FBB040" stroke="white" stroke-width="4"></path><path fill-rule="evenodd" clip-rule="evenodd" d="M74.3537 110.59C74.3196 110.623 74.2887 110.658 74.2608 110.695C74.0109 111.025 74.0091 111.479 74.2582 111.812C74.2873 111.85 74.3197 111.887 74.3555 111.922L80.979 118.399C81.3568 118.768 81.9669 118.767 82.3417 118.401C82.7165 118.034 82.7176 117.438 82.3398 117.068L75.7164 110.592C75.6842 110.56 75.6503 110.531 75.6149 110.505C75.2506 110.236 74.7372 110.253 74.3935 110.553C74.38 110.565 74.3667 110.577 74.3537 110.59ZM72.6747 113.566C71.3706 112.291 71.3678 110.223 72.6729 108.946C73.9779 107.67 76.0931 107.673 77.3972 108.948L84.0206 115.425C85.3247 116.7 85.3275 118.768 84.0225 120.044C82.7174 121.32 80.6023 121.318 79.2982 120.042L72.6747 113.566Z" fill="#FEE9B2"></path><path fill-rule="evenodd" clip-rule="evenodd" d="M67.3262 104.729C67.7657 104.245 68.4782 104.245 68.9177 104.729L74.0505 110.375C74.138 110.471 74.2082 110.58 74.2608 110.695C74.4207 111.045 74.4199 111.462 74.2582 111.812C74.2059 111.925 74.1366 112.031 74.0505 112.126C73.611 112.609 72.8985 112.609 72.459 112.126L67.3262 106.48C66.8867 105.996 66.8867 105.212 67.3262 104.729Z" fill="#FEE9B2"></path><path fill-rule="evenodd" clip-rule="evenodd" d="M68.2903 102.924C68.7847 102.441 69.5864 102.441 70.0808 102.924L75.8552 108.57C76.3496 109.054 76.3496 109.838 75.8552 110.321C75.7813 110.393 75.7005 110.455 75.6149 110.505C75.2426 110.726 74.7791 110.742 74.3935 110.553C74.2749 110.495 74.1637 110.418 74.0647 110.321L68.2903 104.675C67.7959 104.191 67.7959 103.407 68.2903 102.924Z" fill="#FEE9B2"></path><path fill-rule="evenodd" clip-rule="evenodd" d="M59.1515 111.586C68.0718 111.586 75.3031 104.515 75.3031 95.793C75.3031 87.0708 68.0718 80 59.1515 80C50.2313 80 43 87.0708 43 95.793C43 104.515 50.2313 111.586 59.1515 111.586ZM50.3836 96.2442C50.3836 91.2601 54.5157 87.2197 59.613 87.2197C64.7103 87.2197 68.8424 91.2601 68.8424 96.2442C68.8424 101.228 64.7103 105.269 59.613 105.269C54.5157 105.269 50.3836 101.228 50.3836 96.2442Z" fill="#FEE9B2"></path><path d="M74.2582 111.812C74.2873 111.85 74.3197 111.887 74.3555 111.922L80.979 118.399C81.3568 118.768 81.9669 118.767 82.3417 118.401C82.7165 118.034 82.7176 117.438 82.3398 117.068L75.7164 110.592C75.6842 110.56 75.6503 110.531 75.6149 110.505C75.2426 110.726 74.7791 110.742 74.3935 110.553C74.38 110.565 74.3667 110.577 74.3537 110.59C74.3196 110.623 74.2887 110.658 74.2608 110.695C74.4207 111.045 74.4199 111.462 74.2582 111.812Z" fill="#FEE9B2"></path><circle cx="64" cy="19" r="19" fill="#FBB040"></circle></g><defs><clipPath id="clip0_2121_1804"><rect width="128" height="128" fill="white"></rect></clipPath></defs></svg>