<svg xmlns="http://www.w3.org/2000/svg" width="128" height="128" viewBox="0 0 128 128" fill="none"><circle cx="103.5" cy="80.5" r="15.5" fill="#FBB040"></circle><circle cx="24.5" cy="80.5" r="15.5" fill="#FBB040"></circle><path d="M79 120.75C79 108.738 88.7378 99 100.75 99H106.25C118.262 99 128 108.738 128 120.75C128 124.754 124.754 128 120.75 128H86.25C82.2459 128 79 124.754 79 120.75Z" fill="#FBB040"></path><path d="M0 120.75C0 108.738 9.73781 99 21.75 99H27.25C39.2622 99 49 108.738 49 120.75C49 124.754 45.7541 128 41.75 128H7.25C3.24594 128 0 124.754 0 120.75Z" fill="#FBB040"></path><path d="M27 12C27 9.23858 29.2386 7 32 7H97C99.7614 7 102 9.23858 102 12V48.0851C102 50.8465 99.7614 53.0851 97 53.0851H87.7958C86.6912 53.0851 85.7958 53.9805 85.7958 55.0851V59.4226C85.7958 61.1676 83.7174 62.0757 82.437 60.8902L74.5821 53.6175C74.2124 53.2753 73.7272 53.0851 73.2233 53.0851H53.6389C53.1502 53.0851 52.6783 53.2641 52.3125 53.5883L43.8898 61.0522C42.5994 62.1958 40.5634 61.2796 40.5634 59.5554V55.0851C40.5634 53.9805 39.668 53.0851 38.5634 53.0851H32C29.2386 53.0851 27 50.8465 27 48.0851V12Z" fill="#FBB040"></path><circle cx="45" cy="30" r="5" fill="white"></circle><circle cx="64" cy="30" r="5" fill="white"></circle><circle cx="83" cy="30" r="5" fill="white"></circle></svg>