<svg xmlns="http://www.w3.org/2000/svg" width="128" height="128" viewBox="0 0 128 128" fill="none"><g clip-path="url(#clip0_2114_3481)"><path fill-rule="evenodd" clip-rule="evenodd" d="M52.1293 23.9371L90.8704 43.8312L88.1296 49.1686L52.8707 31.0627L19.8905 57.8293L16.1095 53.1706L52.1293 23.9371Z" fill="#FBB040"></path><circle cx="53" cy="30" r="20" fill="#FBB040"></circle><circle cx="89" cy="46" r="9" fill="#FEE9B2"></circle><circle cx="18" cy="55" r="9" fill="#FEE9B2"></circle><path d="M54.8429 128H85.5573C87.0851 128 88.529 127.302 89.4773 126.104L98.92 114.178C99.6194 113.295 100 112.201 100 111.074V81.3176C100 76.3471 95.9706 72.3176 91 72.3176H59.9199V32.8338C59.9199 23.7221 45.8919 23.7221 45.8919 32.8338V88.5161L36.8738 75.3548C30.8618 65.2308 20.8418 72.3176 26.8538 83.4541C34.491 97.601 42.6146 111.414 50.4706 125.434C51.3575 127.017 53.0286 128 54.8429 128Z" fill="#FBB040"></path><path fill-rule="evenodd" clip-rule="evenodd" d="M85.5574 133H54.8429C51.2118 133 47.8764 131.033 46.1088 127.878C43.2965 122.859 40.4265 117.827 37.5464 112.777C32.4593 103.857 27.3409 94.8815 22.454 85.8293C18.8261 79.109 19.0659 71.4396 24.335 67.4467C26.9674 65.4519 30.3522 64.9472 33.562 66.0582C36.5233 67.0833 39.0046 69.3391 40.8919 72.3418V32.8338C40.8919 29.1529 42.3631 26.0484 44.8105 23.9288C47.1563 21.8972 50.1217 21 52.9059 21C55.6902 21 58.6555 21.8972 61.0014 23.9288C63.4487 26.0484 64.9199 29.1529 64.9199 32.8338V67.3176H91C98.732 67.3176 105 73.5856 105 81.3176V111.074C105 113.328 104.239 115.515 102.84 117.282L93.3974 129.208C91.5007 131.603 88.6129 133 85.5574 133ZM91 72.3176C95.9706 72.3176 100 76.3471 100 81.3176V111.074C100 112.201 99.6195 113.295 98.9201 114.178L89.4774 126.104C88.529 127.302 87.0851 128 85.5574 128H54.8429C53.0287 128 51.3575 127.017 50.4707 125.434C47.6181 120.343 44.7302 115.28 41.8431 110.217C36.7792 101.339 31.7179 92.4641 26.8538 83.4541C20.8418 72.3176 30.8619 65.2308 36.8739 75.3548L45.8919 88.5161V32.8338C45.8919 23.7221 59.9199 23.7221 59.9199 32.8338V72.3176H91Z" fill="white"></path></g><defs><clipPath id="clip0_2114_3481"><rect width="128" height="128" fill="white"></rect></clipPath></defs></svg>