<svg xmlns="http://www.w3.org/2000/svg" width="128" height="128" viewBox="0 0 128 128" fill="none"><g clip-path="url(#clip0_2118_1563)"><rect width="5.88045" height="38.2324" rx="2.94023" transform="matrix(-0.707107 0.707107 0.707107 0.707107 13.7908 96.6875)" fill="#FBB040"></rect><path fill-rule="evenodd" clip-rule="evenodd" d="M3.9214 87.079C7.22864 85.2541 11.4716 85.744 14.2764 88.5488C17.6748 91.9472 17.6748 97.4571 14.2764 100.856L13.8555 101.276C10.4571 104.675 4.94721 104.675 1.5488 101.276C-0.948095 98.7795 -1.61046 95.1428 -0.438293 92.0411L4.10366 96.5831C4.68945 97.1689 5.6392 97.1689 6.22498 96.5831L8.7646 94.0435C9.35039 93.4577 9.35039 92.5079 8.7646 91.9222L3.9214 87.079Z" fill="#FBB040"></path><path fill-rule="evenodd" clip-rule="evenodd" d="M9.18147 69.1551C5.49194 69.2564 2.4189 66.3475 2.31765 62.6579C1.38952 28.8372 28.0543 0.667613 61.875 -0.260512C95.6958 -1.18864 123.865 25.4762 124.793 59.2969C125.534 86.2971 108.689 109.696 84.657 118.507C85.4127 120.157 85.4978 122.107 84.7312 123.909C83.286 127.305 79.3612 128.887 75.965 127.441L62.436 121.684C60.4767 120.85 59.032 119.133 58.5461 117.06C58.0602 114.987 58.5912 112.806 59.9759 111.189L70.2325 99.2076C72.6328 96.4037 76.8516 96.0766 79.6555 98.4768C81.6763 100.207 82.4106 102.881 81.7645 105.29C99.6364 97.9422 111.994 80.1259 111.432 59.6636C110.707 33.2219 88.6834 12.3749 62.2417 13.1005C35.8 13.8261 14.953 35.8496 15.6786 62.2913C15.7799 65.9808 12.871 69.0539 9.18147 69.1551Z" fill="#FBB040"></path><path d="M33.3876 90.7374L35.7535 92.9498L34.3297 96.0532L31.3287 97.6816L12.1545 118.186L9.78861 115.974L28.9628 95.4692L30.3865 92.3658L33.3876 90.7374Z" fill="#FEE9B2"></path><rect width="12.2984" height="27.8532" rx="6.1492" transform="matrix(-0.730406 -0.683013 -0.683013 0.730406 28.0635 108.015)" fill="#FEE9B2"></rect><path d="M54.8079 79.7183C55.8722 79.7183 56.7591 80.0714 57.4687 80.7775C58.1783 81.4836 58.533 82.3662 58.533 83.4254C58.533 84.4404 58.1783 85.3009 57.4687 86.007C56.7591 86.669 55.8722 87 54.8079 87H32.1908C31.0378 87 30.1287 86.647 29.4635 85.9408C28.7982 85.2347 28.4656 84.33 28.4656 83.2268C28.4656 82.1235 28.8648 81.1526 29.663 80.3141L44.1645 64.8901C45.8054 63.1249 47.0915 61.3155 48.0228 59.462C48.9984 57.6084 49.4862 55.9977 49.4862 54.6296C49.4862 52.423 48.8432 50.6577 47.5571 49.3338C46.271 47.9657 44.5637 47.2817 42.435 47.2817C41.5924 47.2817 40.7276 47.4803 39.8407 47.8775C38.9538 48.2746 38.089 48.8263 37.2464 49.5324C36.4481 50.2385 35.6942 51.0549 34.9847 51.9817C34.4525 52.6878 33.9203 53.1291 33.3882 53.3056C32.856 53.4822 32.3682 53.5704 31.9247 53.5704C30.9491 53.5704 30.04 53.2174 29.1974 52.5113C28.3991 51.761 28 50.9005 28 49.9296C28 49.1793 28.2439 48.4512 28.7317 47.7451C29.2639 47.039 29.9069 46.3108 30.6608 45.5606C31.7695 44.4573 33.0112 43.4864 34.386 42.6479C35.7608 41.8094 37.1799 41.1695 38.6433 40.7282C40.1068 40.2427 41.5259 40 42.9007 40C45.8719 40 48.444 40.5958 50.6171 41.7873C52.8344 42.9347 54.5418 44.5897 55.7392 46.7521C56.9365 48.8704 57.5352 51.3859 57.5352 54.2986C57.5352 56.7258 56.8035 59.4399 55.34 62.4408C53.9209 65.3977 51.9918 68.1779 49.5527 70.7817L40.5724 80.3141L39.8407 79.7183H54.8079Z" fill="#FBB040"></path><path d="M87.4254 87C86.3167 87 85.3854 86.6249 84.6315 85.8746C83.8776 85.0803 83.5007 84.1094 83.5007 82.962V51.8493L84.8976 52.1803L72.0591 68.0014L71.7265 67.1408H95.2748C96.3392 67.1408 97.2261 67.4939 97.9357 68.2C98.6452 68.9061 99 69.7887 99 70.8479C99 71.8629 98.6452 72.7235 97.9357 73.4296C97.2261 74.0915 96.3392 74.4225 95.2748 74.4225H66.2053C65.274 74.4225 64.3649 74.0474 63.4779 73.2972C62.6353 72.5469 62.214 71.6202 62.214 70.5169C62.214 69.546 62.5466 68.6634 63.2118 67.869L84.2324 42.2507C84.5872 41.7653 85.0528 41.3901 85.6293 41.1254C86.2058 40.8164 86.8489 40.662 87.5584 40.662C88.7115 40.662 89.6427 41.0592 90.3523 41.8535C91.1062 42.6038 91.4832 43.5526 91.4832 44.7V82.962C91.4832 84.1094 91.084 85.0803 90.2858 85.8746C89.5319 86.6249 88.5784 87 87.4254 87Z" fill="#FBB040"></path></g><defs><clipPath id="clip0_2118_1563"><rect width="128" height="128" fill="white"></rect></clipPath></defs></svg>