<svg xmlns="http://www.w3.org/2000/svg" xmlns:xlink="http://www.w3.org/1999/xlink" id="Layer_1" x="0px" y="0px" viewBox="0 0 23 23" style="enable-background:new 0 0 23 23;" xml:space="preserve"><path d="M1.1,0h20.7C22.5,0,23,0.5,23,1.1v0c0,0.6-0.5,1.1-1.2,1.1H1.1C0.5,2.3,0,1.8,0,1.2v0C0,0.5,0.5,0,1.1,0z"></path><path d="M1.1,10.3h20.7c0.6,0,1.2,0.5,1.2,1.1l0,0c0,0.6-0.5,1.1-1.2,1.1H1.1c-0.6,0-1.1-0.5-1.1-1.1l0,0C0,10.9,0.5,10.3,1.1,10.3z "></path><path d="M1.1,20.7h20.7c0.6,0,1.2,0.5,1.2,1.2v0c0,0.6-0.5,1.2-1.2,1.2H1.1C0.5,23,0,22.5,0,21.8v0C0,21.2,0.5,20.7,1.1,20.7z"></path></svg>