<svg xmlns="http://www.w3.org/2000/svg" width="160" height="160" viewBox="0 0 160 160" fill="none"><path d="M0 8C0 3.58172 3.58172 0 8 0H152C156.418 0 160 3.58172 160 8V152C160 156.418 156.418 160 152 160H8C3.58172 160 0 156.418 0 152V8Z" fill="#FBB040"></path><path fill-rule="evenodd" clip-rule="evenodd" d="M46.8284 65.2382C48.3537 64.5912 50.1147 65.3031 50.7618 66.8283L64.7618 99.8283C65.4089 101.354 64.697 103.115 63.1717 103.762C61.6464 104.409 59.8854 103.697 59.2383 102.172L45.2383 69.1716C44.5912 67.6464 45.3031 65.8853 46.8284 65.2382Z" fill="#E6E6E6"></path><path fill-rule="evenodd" clip-rule="evenodd" d="M26.4276 65.445C27.8387 64.5767 29.6866 65.0166 30.5549 66.4277L54.5549 105.428C55.4233 106.839 54.9833 108.687 53.5722 109.555C52.1612 110.423 50.3133 109.983 49.445 108.572L25.445 69.5723C24.5766 68.1612 25.0166 66.3134 26.4276 65.445Z" fill="#E6E6E6"></path><path fill-rule="evenodd" clip-rule="evenodd" d="M114.172 65.2382C112.646 64.5912 110.885 65.3031 110.238 66.8283L96.2382 99.8283C95.5911 101.354 96.303 103.115 97.8283 103.762C99.3536 104.409 101.115 103.697 101.762 102.172L115.762 69.1716C116.409 67.6464 115.697 65.8853 114.172 65.2382Z" fill="#E6E6E6"></path><path fill-rule="evenodd" clip-rule="evenodd" d="M133.572 65.445C132.161 64.5767 130.313 65.0166 129.445 66.4277L105.445 105.428C104.577 106.839 105.017 108.687 106.428 109.555C107.839 110.423 109.687 109.983 110.555 108.572L134.555 69.5723C135.423 68.1612 134.983 66.3134 133.572 65.445Z" fill="#E6E6E6"></path><path fill-rule="evenodd" clip-rule="evenodd" d="M80 69C81.6569 69 83 70.3431 83 72V92C83 93.6569 81.6569 95 80 95C78.3431 95 77 93.6569 77 92V72C77 70.3431 78.3431 69 80 69Z" fill="#E6E6E6"></path><path fill-rule="evenodd" clip-rule="evenodd" d="M85.7573 103.658C84.4639 105.449 84.8671 107.949 86.658 109.243L100.168 119L86.658 128.757C84.8671 130.051 84.4639 132.551 85.7573 134.342C87.0507 136.133 89.5511 136.536 91.342 135.243L109.342 122.243C110.383 121.491 111 120.284 111 119C111 117.716 110.383 116.509 109.342 115.757L91.342 102.757C89.5511 101.464 87.0507 101.867 85.7573 103.658Z" fill="#043D81"></path><path fill-rule="evenodd" clip-rule="evenodd" d="M75.3012 103.741C76.5487 105.564 76.082 108.054 74.2587 109.301L60.0836 119L74.2587 128.699C76.082 129.946 76.5487 132.436 75.3012 134.259C74.0538 136.082 71.5645 136.549 69.7413 135.301L50.7413 122.301C49.6516 121.556 49 120.32 49 119C49 117.68 49.6516 116.444 50.7413 115.699L69.7413 102.699C71.5645 101.451 74.0538 101.918 75.3012 103.741Z" fill="#043D81"></path><path d="M137.1 65.9714C138.117 68.95 133.7 71.1813 130.865 69.8134C129.092 68.9576 127.119 68.3926 125 68.3926C119.861 68.3926 115.578 71.7167 112.922 74.4543C111.412 76.0098 108.588 76.0098 107.078 74.4543C104.422 71.7167 100.139 68.3926 95 68.3926C89.861 68.3926 85.5778 71.7167 82.9216 74.4543C81.4124 76.0098 78.5875 76.0098 77.0784 74.4543C74.4222 71.7167 70.1389 68.3926 65 68.3926C59.861 68.3926 55.5778 71.7167 52.9216 74.4543C51.4124 76.0098 48.5875 76.0098 47.0784 74.4543C44.4222 71.7167 40.1389 68.3926 35 68.3926C32.8884 68.3926 30.9214 68.9538 29.1523 69.805C26.3151 71.17 21.8947 68.9331 22.9144 65.9543C28.1728 50.594 42.4571 26 80.0189 26C117.595 26 131.858 50.6123 137.1 65.9714Z" fill="white"></path></svg>