<svg xmlns="http://www.w3.org/2000/svg" width="32" height="32" viewBox="0 0 32 32" fill="none"><g clip-path="url(#clip0_2086_2499)"><path fill-rule="evenodd" clip-rule="evenodd" d="M28.8 2.4H3.2C2.75817 2.4 2.4 2.75817 2.4 3.2V28.8C2.4 29.2418 2.75817 29.6 3.2 29.6H28.8C29.2418 29.6 29.6 29.2418 29.6 28.8V3.2C29.6 2.75817 29.2418 2.4 28.8 2.4ZM3.2 0C1.43269 0 0 1.43269 0 3.2V28.8C0 30.5673 1.43269 32 3.2 32H28.8C30.5673 32 32 30.5673 32 28.8V3.2C32 1.43269 30.5673 0 28.8 0H3.2Z" fill="#043D81"></path><path fill-rule="evenodd" clip-rule="evenodd" d="M12.9602 14.88C13.3578 15.4102 13.2504 16.1623 12.7202 16.56L8.4002 19.8L12.7202 23.04C13.2504 23.4376 13.3578 24.1898 12.9602 24.72C12.5626 25.2502 11.8104 25.3576 11.2802 24.96L5.6802 20.76C5.37803 20.5333 5.2002 20.1777 5.2002 19.8C5.2002 19.4223 5.37803 19.0666 5.6802 18.84L11.2802 14.64C11.8104 14.2423 12.5626 14.3498 12.9602 14.88Z" fill="#043D81"></path><path fill-rule="evenodd" clip-rule="evenodd" d="M19.4402 24.72C19.0426 24.1898 19.15 23.4376 19.6802 23.04L24.0002 19.8L19.6802 16.56C19.15 16.1624 19.0426 15.4102 19.4402 14.88C19.8378 14.3498 20.59 14.2424 21.1202 14.64L26.7202 18.84C27.0224 19.0666 27.2002 19.4223 27.2002 19.8C27.2002 20.1777 27.0224 20.5334 26.7202 20.76L21.1202 24.96C20.59 25.3576 19.8378 25.2502 19.4402 24.72Z" fill="#043D81"></path><path fill-rule="evenodd" clip-rule="evenodd" d="M17.283 11.3448C17.7176 11.4248 18.0069 11.8422 17.9293 12.2772L15.2343 27.3845C15.1567 27.8195 14.7416 28.1073 14.3071 28.0273C13.8725 27.9473 13.5832 27.5298 13.6608 27.0949L16.3558 11.9875C16.4334 11.5526 16.8485 11.2648 17.283 11.3448Z" fill="#FBB040"></path><path fill-rule="evenodd" clip-rule="evenodd" d="M32 8.80002L0 8.80002L0 6.40002L32 6.40002V8.80002Z" fill="#043D81"></path><path d="M6.3999 4.59998C6.3999 5.15226 5.95219 5.59998 5.3999 5.59998C4.84762 5.59998 4.3999 5.15226 4.3999 4.59998C4.3999 4.04769 4.84762 3.59998 5.3999 3.59998C5.95219 3.59998 6.3999 4.04769 6.3999 4.59998Z" fill="#FBB040"></path><path d="M10.7998 4.59998C10.7998 5.15226 10.3521 5.59998 9.7998 5.59998C9.24752 5.59998 8.7998 5.15226 8.7998 4.59998C8.7998 4.04769 9.24752 3.59998 9.7998 3.59998C10.3521 3.59998 10.7998 4.04769 10.7998 4.59998Z" fill="#043D81"></path><path d="M15.2002 4.59998C15.2002 5.15226 14.7525 5.59998 14.2002 5.59998C13.6479 5.59998 13.2002 5.15226 13.2002 4.59998C13.2002 4.04769 13.6479 3.59998 14.2002 3.59998C14.7525 3.59998 15.2002 4.04769 15.2002 4.59998Z" fill="#043D81"></path></g><defs><clipPath id="clip0_2086_2499"><rect width="32" height="32" fill="white"></rect></clipPath></defs></svg>