<svg xmlns="http://www.w3.org/2000/svg" width="128" height="128" viewBox="0 0 128 128" fill="none"><path fill-rule="evenodd" clip-rule="evenodd" d="M33 0C28.5817 0 25 3.58172 25 8V92C25 96.4183 28.5817 100 33 100H96C100.418 100 104 96.4183 104 92V8C104 3.58172 100.418 0 96 0H33ZM40 20C40 17.7909 41.7909 16 44 16H85C87.2091 16 89 17.7909 89 20C89 22.2091 87.2091 24 85 24H44C41.7909 24 40 22.2091 40 20ZM40 40C40 37.7909 41.7909 36 44 36H85C87.2091 36 89 37.7909 89 40C89 42.2091 87.2091 44 85 44H44C41.7909 44 40 42.2091 40 40ZM44 56C41.7909 56 40 57.7909 40 60C40 62.2091 41.7909 64 44 64H85C87.2091 64 89 62.2091 89 60C89 57.7909 87.2091 56 85 56H44ZM40 80C40 77.7909 41.7909 76 44 76H85C87.2091 76 89 77.7909 89 80C89 82.2091 87.2091 84 85 84H44C41.7909 84 40 82.2091 40 80Z" fill="#FBB040"></path><circle cx="107" cy="107" r="21" fill="#FEE9B2"></circle><path fill-rule="evenodd" clip-rule="evenodd" d="M119.779 97.2686C121.407 98.9601 121.407 101.702 119.779 103.394L106.323 117.369C104.229 119.544 100.834 119.544 98.7406 117.369L94.2214 112.675C92.5929 110.984 92.5929 108.241 94.2214 106.55C95.85 104.858 98.4904 104.858 100.119 106.55L102.532 109.056L113.881 97.2686C115.51 95.5771 118.15 95.5771 119.779 97.2686Z" fill="#FBB040"></path></svg>