<svg xmlns="http://www.w3.org/2000/svg" width="121" height="120" viewBox="0 0 121 120" fill="none"><path d="M29.75 67.5V84.75C29.75 90.549 43.6727 95.25 60.8472 95.25C78.0217 95.25 91.9444 90.549 91.9444 84.75V67.5" stroke="#FBB040" stroke-width="6"></path><path d="M29.75 51V68.25C29.75 74.049 43.6727 78.75 60.8472 78.75C78.0217 78.75 91.9444 74.049 91.9444 68.25V51" stroke="#043D81" stroke-width="6"></path><ellipse cx="60.875" cy="34.5" rx="31.125" ry="10.5" stroke="#FBB040" stroke-width="6"></ellipse><path d="M29.75 34.5V51.75C29.75 57.549 43.6727 62.25 60.8472 62.25C78.0217 62.25 91.9444 57.549 91.9444 51.75V34.5" stroke="#FBB040" stroke-width="6"></path><circle cx="40.25" cy="50.25" r="3" fill="#043D81"></circle><circle cx="40.25" cy="67.5" r="3" fill="#043D81"></circle><circle cx="40.25" cy="84.75" r="3" fill="#043D81"></circle><circle cx="50.75" cy="52.5" r="3" fill="#043D81"></circle><circle cx="50.75" cy="69.75" r="3" fill="#043D81"></circle><circle cx="50.75" cy="87" r="3" fill="#043D81"></circle></svg>