<svg xmlns="http://www.w3.org/2000/svg" width="121" height="120" viewBox="0 0 121 120" fill="none"><path d="M47.2058 47.4074C48.9496 46.0511 49.2637 43.538 47.9074 41.7942C46.5511 40.0504 44.038 39.7363 42.2942 41.0926L47.2058 47.4074ZM24.5 60L22.0442 56.8426C21.0699 57.6004 20.5 58.7656 20.5 60C20.5 61.2344 21.0699 62.3996 22.0442 63.1574L24.5 60ZM42.2942 78.9074C44.038 80.2637 46.5511 79.9496 47.9074 78.2058C49.2637 76.462 48.9496 73.9489 47.2058 72.5926L42.2942 78.9074ZM42.2942 41.0926L22.0442 56.8426L26.9558 63.1574L47.2058 47.4074L42.2942 41.0926ZM22.0442 63.1574L42.2942 78.9074L47.2058 72.5926L26.9558 56.8426L22.0442 63.1574Z" fill="#043D81"></path><path d="M73.7942 72.5926C72.0504 73.9489 71.7363 76.462 73.0926 78.2058C74.4489 79.9495 76.962 80.2637 78.7058 78.9074L73.7942 72.5926ZM96.5 60L98.9558 63.1574C99.9301 62.3996 100.5 61.2344 100.5 60C100.5 58.7656 99.9301 57.6004 98.9558 56.8426L96.5 60ZM78.7058 41.0926C76.962 39.7363 74.4489 40.0505 73.0926 41.7942C71.7363 43.538 72.0504 46.0511 73.7942 47.4074L78.7058 41.0926ZM78.7058 78.9074L98.9558 63.1574L94.0442 56.8426L73.7942 72.5926L78.7058 78.9074ZM98.9558 56.8426L78.7058 41.0926L73.7942 47.4074L94.0442 63.1574L98.9558 56.8426Z" fill="#043D81"></path><line x1="65.7488" y1="34.843" x2="56.3729" y2="86.5834" stroke="#FBB040" stroke-width="8" stroke-linecap="round"></line></svg>