<svg xmlns="http://www.w3.org/2000/svg" width="1280" height="1159" viewBox="0 0 1280 1159" fill="none"><g clip-path="url(#clip0_2358_3288)"><rect width="1280" height="1159" fill="#043D81"></rect><path opacity="0.2" d="M1518.67 1221.49C1518.67 1735.38 1102.08 2151.98 588.182 2151.98C74.2871 2151.98 -342.307 1735.38 -342.307 1221.49C-342.307 707.594 74.2871 291 588.182 291C1102.08 291 1518.67 707.594 1518.67 1221.49Z" fill="url(#paint0_linear_2358_3288)"></path><path opacity="0.2" d="M-283.278 1424.5C-391.925 1019.02 -151.298 602.245 254.175 493.599C659.649 384.952 1076.43 625.578 1185.07 1031.05C1293.72 1436.53 1053.09 1853.3 647.618 1961.95C242.145 2070.6 -174.632 1829.97 -283.278 1424.5Z" fill="url(#paint1_linear_2358_3288)"></path><path opacity="0.2" d="M-265.144 1361.47C-348.979 1048.59 -163.304 726.993 149.573 643.157C462.451 559.322 784.05 744.997 867.885 1057.87C951.721 1370.75 766.045 1692.35 453.168 1776.19C140.29 1860.02 -181.309 1674.35 -265.144 1361.47Z" fill="url(#paint2_linear_2358_3288)"></path></g><defs><linearGradient id="paint0_linear_2358_3288" x1="1462.8" y1="903.17" x2="-286.397" y2="1539.81" gradientUnits="userSpaceOnUse"><stop offset="0.14" stop-color="#025BB5" stop-opacity="0"></stop><stop offset="1" stop-color="#99AFFF"></stop></linearGradient><linearGradient id="paint1_linear_2358_3288" x1="-171.894" y1="1663.84" x2="1073.66" y2="791.712" gradientUnits="userSpaceOnUse"><stop offset="0.14" stop-color="#025BB5" stop-opacity="0"></stop><stop offset="1" stop-color="#99AFFF"></stop></linearGradient><linearGradient id="paint2_linear_2358_3288" x1="-179.196" y1="1546.16" x2="781.916" y2="873.192" gradientUnits="userSpaceOnUse"><stop offset="0.14" stop-color="#025BB5" stop-opacity="0"></stop><stop offset="1" stop-color="#99AFFF"></stop></linearGradient><clipPath id="clip0_2358_3288"><rect width="1280" height="1159" fill="white"></rect></clipPath></defs></svg>