<svg xmlns="http://www.w3.org/2000/svg" width="128" height="128" viewBox="0 0 128 128" fill="none"><rect x="2" y="27" width="124" height="83" rx="8" stroke="#FBB040" stroke-width="4"></rect><rect x="18" y="16" width="8" height="20" rx="4" fill="#FBB040"></rect><rect x="60" y="16" width="8" height="20" rx="4" fill="#FBB040"></rect><rect x="102" y="16" width="8" height="20" rx="4" fill="#FBB040"></rect><rect x="14" y="52" width="22" height="22" rx="4" fill="#FCC96F"></rect><rect x="14" y="78" width="22" height="22" rx="4" fill="#FCC96F"></rect><rect x="40" y="52" width="22" height="22" rx="4" fill="#FCC96F"></rect><rect x="40" y="78" width="22" height="22" rx="4" fill="#FCC96F"></rect><rect x="66" y="52" width="22" height="22" rx="4" fill="#FCC96F"></rect><rect x="66" y="78" width="22" height="22" rx="4" fill="#FCC96F"></rect><rect x="92" y="52" width="22" height="22" rx="4" fill="#FCC96F"></rect><rect x="92" y="78" width="22" height="22" rx="4" fill="#FCC96F"></rect></svg>