<svg xmlns="http://www.w3.org/2000/svg" width="128" height="128" viewBox="0 0 128 128" fill="none"><g clip-path="url(#clip0_2114_3605)"><rect x="6" width="115" height="95" rx="4" fill="#FBB040"></rect><rect x="48" y="68" width="32" height="47" rx="4" fill="#FBB040"></rect><rect x="35" y="109" width="58" height="6" rx="3" fill="#FBB040"></rect><rect x="13" y="9" width="102" height="72" rx="2" fill="white"></rect><rect x="19" y="16" width="29" height="60" rx="2" fill="#FEE9B2"></rect><rect width="56" height="21" rx="2" transform="matrix(1 0 0 -1 53 37)" fill="#FEE9B2"></rect><rect width="56" height="33" rx="2" transform="matrix(1 0 0 -1 65 89)" fill="#FEE9B2"></rect><path d="M104.22 107.58L100.271 78.0569C100.034 76.2869 102.059 75.1175 103.474 76.2076L127.066 94.3894C128.275 95.3206 128.038 97.2074 126.636 97.8106L121.329 100.095C120.115 100.618 119.733 102.153 120.56 103.184L123.135 106.392C123.902 107.348 123.637 108.763 122.575 109.376L119.444 111.183C118.383 111.796 117.025 111.319 116.58 110.176L115.089 106.343C114.61 105.111 113.089 104.674 112.03 105.464L107.398 108.918C106.175 109.83 104.422 109.092 104.22 107.58Z" fill="#FBB040"></path><path fill-rule="evenodd" clip-rule="evenodd" d="M99.2643 108.243L95.3147 78.72C94.4859 72.5247 101.575 68.4318 106.526 72.2472L130.119 90.4291C134.348 93.6883 133.518 100.292 128.613 102.403L126.927 103.129L127.034 103.263C129.72 106.609 128.79 111.561 125.075 113.706L121.944 115.513C118.229 117.658 113.476 115.987 111.921 111.989L111.858 111.829L110.387 112.926C106.106 116.118 99.9723 113.535 99.2643 108.243ZM127.066 94.3894C128.275 95.3206 128.038 97.2075 126.636 97.8106L121.329 100.095C120.116 100.618 119.733 102.153 120.56 103.184L123.135 106.392C123.902 107.348 123.637 108.763 122.575 109.376L119.444 111.183C118.383 111.796 117.025 111.319 116.58 110.176L115.089 106.343C114.61 105.111 113.089 104.674 112.03 105.464L107.398 108.918C106.175 109.83 104.422 109.092 104.22 107.58L100.271 78.057C100.034 76.2869 102.059 75.1175 103.474 76.2076L127.066 94.3894Z" fill="white"></path></g><defs><clipPath id="clip0_2114_3605"><rect width="128" height="128" fill="white"></rect></clipPath></defs></svg>