<svg xmlns="http://www.w3.org/2000/svg" width="160" height="160" viewBox="0 0 160 160" fill="none"><path d="M0 8C0 3.58172 3.58172 0 8 0H152C156.418 0 160 3.58172 160 8V152C160 156.418 156.418 160 152 160H8C3.58172 160 0 156.418 0 152V8Z" fill="#FBB040"></path><path d="M20 28C20 23.5817 23.5817 20 28 20H91C95.4183 20 99 23.5817 99 28V112C99 116.418 95.4183 120 91 120H28C23.5817 120 20 116.418 20 112V28Z" fill="white"></path><path d="M32 41C32 36.5817 35.5817 33 40 33H103C107.418 33 111 36.5817 111 41V125C111 129.418 107.418 133 103 133H40C35.5817 133 32 129.418 32 125V41Z" fill="white"></path><path fill-rule="evenodd" clip-rule="evenodd" d="M40 29H103C109.627 29 115 34.3726 115 41V125C115 131.627 109.627 137 103 137H40C33.3726 137 28 131.627 28 125V41C28 34.3726 33.3726 29 40 29ZM40 33C35.5817 33 32 36.5817 32 41V125C32 129.418 35.5817 133 40 133H103C107.418 133 111 129.418 111 125V41C111 36.5817 107.418 33 103 33H40Z" fill="#FBB040"></path><path fill-rule="evenodd" clip-rule="evenodd" d="M47 53C47 50.7909 48.7909 49 51 49H92C94.2091 49 96 50.7909 96 53C96 55.2091 94.2091 57 92 57H51C48.7909 57 47 55.2091 47 53Z" fill="#E6E6E6"></path><path fill-rule="evenodd" clip-rule="evenodd" d="M47 73C47 70.7909 48.7909 69 51 69H92C94.2091 69 96 70.7909 96 73C96 75.2091 94.2091 77 92 77H51C48.7909 77 47 75.2091 47 73Z" fill="#E6E6E6"></path><path fill-rule="evenodd" clip-rule="evenodd" d="M47 93C47 90.7909 48.7909 89 51 89H92C94.2091 89 96 90.7909 96 93C96 95.2091 94.2091 97 92 97H51C48.7909 97 47 95.2091 47 93Z" fill="#E6E6E6"></path><path fill-rule="evenodd" clip-rule="evenodd" d="M47 113C47 110.791 48.7909 109 51 109H92C94.2091 109 96 110.791 96 113C96 115.209 94.2091 117 92 117H51C48.7909 117 47 115.209 47 113Z" fill="#E6E6E6"></path><path d="M97.3044 110.121C112.482 110.121 124.786 97.8166 124.786 82.6388C124.786 67.461 112.482 55.157 97.3044 55.157C82.1266 55.157 69.8225 67.461 69.8225 82.6388C69.8225 97.8166 82.1266 110.121 97.3044 110.121Z" fill="#043D81"></path><path fill-rule="evenodd" clip-rule="evenodd" d="M97.3044 57.157C83.2311 57.157 71.8225 68.5656 71.8225 82.6388C71.8225 96.712 83.2311 108.121 97.3044 108.121C111.378 108.121 122.786 96.712 122.786 82.6388C122.786 68.5656 111.378 57.157 97.3044 57.157ZM67.8225 82.6388C67.8225 66.3564 81.022 53.157 97.3044 53.157C113.587 53.157 126.786 66.3564 126.786 82.6388C126.786 98.9212 113.587 112.121 97.3044 112.121C81.022 112.121 67.8225 98.9212 67.8225 82.6388Z" fill="#FBB040"></path><path d="M126.292 106.432C124.877 105.017 122.584 105.016 121.17 106.429C119.757 107.843 119.758 110.136 121.173 111.551L132.319 122.697C133.734 124.112 136.027 124.113 137.441 122.7C138.854 121.286 138.853 118.993 137.438 117.578L126.292 106.432Z" fill="#043D81"></path><path fill-rule="evenodd" clip-rule="evenodd" d="M122.584 107.843C121.954 108.474 121.952 109.501 122.588 110.137L133.733 121.282C134.369 121.918 135.396 121.916 136.027 121.286C136.657 120.655 136.659 119.628 136.023 118.992L124.878 107.847C124.242 107.211 123.215 107.213 122.584 107.843ZM119.759 112.965C117.565 110.77 117.56 107.211 119.756 105.015C121.952 102.819 125.511 102.824 127.706 105.018L138.852 116.164C141.046 118.359 141.051 121.918 138.855 124.114C136.659 126.31 133.099 126.305 130.905 124.111L119.759 112.965Z" fill="#043D81"></path><path fill-rule="evenodd" clip-rule="evenodd" d="M110.073 98.0047C110.854 97.2236 112.12 97.2236 112.901 98.0047L122.023 107.127C122.804 107.908 122.804 109.174 122.023 109.955C121.242 110.736 119.976 110.736 119.195 109.955L110.073 100.833C109.292 100.052 109.292 98.7857 110.073 98.0047Z" fill="#043D81"></path><path fill-rule="evenodd" clip-rule="evenodd" d="M112.742 95.327C113.523 94.5459 114.789 94.5459 115.57 95.327L124.692 104.449C125.473 105.23 125.473 106.496 124.692 107.277C123.911 108.058 122.645 108.058 121.863 107.277L112.742 98.1554C111.96 97.3744 111.96 96.108 112.742 95.327Z" fill="#043D81"></path><path d="M97.3044 96.17C104.777 96.17 110.836 90.1119 110.836 82.6388C110.836 75.1657 104.777 69.1076 97.3044 69.1076C89.8313 69.1076 83.7732 75.1657 83.7732 82.6388C83.7732 90.1119 89.8313 96.17 97.3044 96.17Z" fill="white"></path><path fill-rule="evenodd" clip-rule="evenodd" d="M97.3044 71.1076C90.9359 71.1076 85.7732 76.2703 85.7732 82.6388C85.7732 89.0073 90.9359 94.17 97.3044 94.17C103.673 94.17 108.836 89.0073 108.836 82.6388C108.836 76.2703 103.673 71.1076 97.3044 71.1076ZM81.7732 82.6388C81.7732 74.0612 88.7267 67.1076 97.3044 67.1076C105.882 67.1076 112.836 74.0612 112.836 82.6388C112.836 91.2164 105.882 98.17 97.3044 98.17C88.7267 98.17 81.7732 91.2164 81.7732 82.6388Z" fill="#043D81"></path></svg>