<svg xmlns="http://www.w3.org/2000/svg" width="32" height="32" viewBox="0 0 32 32" fill="none"><g clip-path="url(#clip0_2086_2505)"><path fill-rule="evenodd" clip-rule="evenodd" d="M28.8 2.4H3.2C2.75817 2.4 2.4 2.75817 2.4 3.2V28.8C2.4 29.2418 2.75817 29.6 3.2 29.6H28.8C29.2418 29.6 29.6 29.2418 29.6 28.8V3.2C29.6 2.75817 29.2418 2.4 28.8 2.4ZM3.2 0C1.43269 0 0 1.43269 0 3.2V28.8C0 30.5673 1.43269 32 3.2 32H28.8C30.5673 32 32 30.5673 32 28.8V3.2C32 1.43269 30.5673 0 28.8 0H3.2Z" fill="#043D81"></path><path fill-rule="evenodd" clip-rule="evenodd" d="M32 8.80002L0 8.80002L0 6.40002L32 6.40002V8.80002Z" fill="#043D81"></path><path d="M6.3999 4.59998C6.3999 5.15226 5.95219 5.59998 5.3999 5.59998C4.84762 5.59998 4.3999 5.15226 4.3999 4.59998C4.3999 4.04769 4.84762 3.59998 5.3999 3.59998C5.95219 3.59998 6.3999 4.04769 6.3999 4.59998Z" fill="#FBB040"></path><path d="M10.7998 4.59998C10.7998 5.15226 10.3521 5.59998 9.7998 5.59998C9.24752 5.59998 8.7998 5.15226 8.7998 4.59998C8.7998 4.04769 9.24752 3.59998 9.7998 3.59998C10.3521 3.59998 10.7998 4.04769 10.7998 4.59998Z" fill="#043D81"></path><path d="M15.2002 4.59998C15.2002 5.15226 14.7525 5.59998 14.2002 5.59998C13.6479 5.59998 13.2002 5.15226 13.2002 4.59998C13.2002 4.04769 13.6479 3.59998 14.2002 3.59998C14.7525 3.59998 15.2002 4.04769 15.2002 4.59998Z" fill="#043D81"></path><path fill-rule="evenodd" clip-rule="evenodd" d="M15.1592 10C14.7282 10 14.3787 10.3494 14.3787 10.7805V13.0069C13.7291 13.1603 13.1192 13.4167 12.5672 13.7577L10.7824 11.9729C10.4776 11.6681 9.98343 11.6681 9.67863 11.9729L8.77274 12.8788C8.46794 13.1836 8.46794 13.6778 8.77274 13.9826L10.5575 15.7674C10.2164 16.3194 9.96003 16.9293 9.80657 17.579H7.58029C7.14924 17.579 6.7998 17.9284 6.7998 18.3594V19.6406C6.7998 20.0716 7.14924 20.4211 7.58029 20.4211H9.80657C9.93584 20.9683 10.1381 21.4873 10.4026 21.9673L8.77278 23.5971C8.46798 23.9019 8.46798 24.3961 8.77278 24.7009L9.67868 25.6068C9.98348 25.9116 10.4777 25.9116 10.7825 25.6068L12.3129 24.0763C12.9297 24.5008 13.6276 24.8157 14.3787 24.9931V27.2195C14.3787 27.6506 14.7282 28 15.1592 28H16.4403C16.8714 28 17.2208 27.6506 17.2208 27.2195V24.9931C17.8705 24.8396 18.4803 24.5833 19.0323 24.2422L20.3969 25.6067C20.7017 25.9115 21.1959 25.9115 21.5007 25.6067L22.4066 24.7008C22.7114 24.396 22.7114 23.9019 22.4066 23.5971L21.042 22.2325C21.383 21.6805 21.6394 21.0707 21.7928 20.4211H24.0193C24.4504 20.4211 24.7998 20.0716 24.7998 19.6406V18.3594C24.7998 17.9284 24.4504 17.579 24.0193 17.579H21.7928C21.6154 16.8279 21.3004 16.1299 20.876 15.5132L22.4066 13.9826C22.7114 13.6778 22.7114 13.1836 22.4066 12.8788L21.5007 11.9729C21.1959 11.6681 20.7017 11.6681 20.3969 11.9729L18.767 13.6029C18.287 13.3384 17.768 13.1362 17.2208 13.0069V10.7805C17.2208 10.3494 16.8714 10 16.4403 10H15.1592ZM15.7997 22.7895C17.8926 22.7895 19.5892 21.0929 19.5892 19C19.5892 16.9071 17.8926 15.2105 15.7997 15.2105C13.7069 15.2105 12.0103 16.9071 12.0103 19C12.0103 21.0929 13.7069 22.7895 15.7997 22.7895Z" fill="#FBB040"></path></g><defs><clipPath id="clip0_2086_2505"><rect width="32" height="32" fill="white"></rect></clipPath></defs></svg>