<svg xmlns="http://www.w3.org/2000/svg" width="80" height="80" viewBox="0 0 80 80" fill="none"><path fill-rule="evenodd" clip-rule="evenodd" d="M43.7 9C34.1575 9 26.2232 15.9995 24.7466 25.1837L24.2852 28.0534L21.4024 27.6831C20.8299 27.6095 20.2451 27.5714 19.65 27.5714C12.1222 27.5714 6 33.7006 6 41.2857C6 48.8708 12.1222 55 19.65 55C21.3069 55 22.65 56.3431 22.65 58C22.65 59.6569 21.3069 61 19.65 61C8.78671 61 0 52.1627 0 41.2857C0 30.4928 8.65139 21.7082 19.3984 21.573C22.3288 10.8721 32.0899 3 43.7 3C55.9264 3 66.1032 11.7302 68.41 23.3017C75.2445 26.3894 80 33.2809 80 41.2857C80 52.1627 71.2133 61 60.35 61C58.6931 61 57.35 59.6569 57.35 58C57.35 56.3431 58.6931 55 60.35 55C67.8778 55 74 48.8708 74 41.2857C74 35.2575 70.129 30.1387 64.7523 28.2995L62.9809 27.6935L62.7469 25.836C61.5496 16.3337 53.4678 9 43.7 9Z" fill="#FBB040"></path><path fill-rule="evenodd" clip-rule="evenodd" d="M28 49C29.1046 49 30 49.8954 30 51L30 62C30 63.1046 29.1046 64 28 64C26.8954 64 26 63.1046 26 62L26 51C26 49.8954 26.8954 49 28 49Z" fill="#FBB040"></path><path fill-rule="evenodd" clip-rule="evenodd" d="M40 46C41.1046 46 42 46.8954 42 48L42 66C42 67.1046 41.1046 68 40 68C38.8954 68 38 67.1046 38 66L38 48C38 46.8954 38.8954 46 40 46Z" fill="#FBB040"></path><path fill-rule="evenodd" clip-rule="evenodd" d="M53 49C54.1046 49 55 49.8954 55 51L55 62C55 63.1046 54.1046 64 53 64C51.8954 64 51 63.1046 51 62L51 51C51 49.8954 51.8954 49 53 49Z" fill="#FBB040"></path><path d="M34 65.5C34 68.5376 31.5376 71 28.5 71C25.4624 71 23 68.5376 23 65.5C23 62.4624 25.4624 60 28.5 60C31.5376 60 34 62.4624 34 65.5Z" fill="#FBB040"></path><path d="M46 70.5C46 73.5376 43.5376 76 40.5 76C37.4624 76 35 73.5376 35 70.5C35 67.4624 37.4624 65 40.5 65C43.5376 65 46 67.4624 46 70.5Z" fill="#FBB040"></path><path d="M59 65.5C59 68.5376 56.5376 71 53.5 71C50.4624 71 48 68.5376 48 65.5C48 62.4624 50.4624 60 53.5 60C56.5376 60 59 62.4624 59 65.5Z" fill="#FBB040"></path></svg>