<svg xmlns="http://www.w3.org/2000/svg" width="32" height="32" viewBox="0 0 32 32" fill="none"><g clip-path="url(#clip0_2100_1684)"><path d="M11.0552 39.2085C10.6572 38.9006 10.4006 38.4147 10.3999 37.8718L10.4053 19.8733C10.406 19.5539 10.4946 19.2431 10.6657 18.9754L14.5989 12.7695C15.1416 11.9121 16.2702 11.7717 17.0122 12.3457C17.1628 12.4623 17.2973 12.6078 17.4076 12.785L21.3397 19.0334C21.5092 19.3038 21.5992 19.6164 21.5999 19.934L21.5945 37.9325C21.593 38.8589 20.8487 39.6048 19.9309 39.6L12.0623 39.558C11.6834 39.5553 11.3327 39.4261 11.0537 39.2104L11.0552 39.2085Z" fill="#FFBE3C"></path><path fill-rule="evenodd" clip-rule="evenodd" d="M28.8 2.4H3.2C2.75817 2.4 2.4 2.75817 2.4 3.2V28.8C2.4 29.2418 2.75817 29.6 3.2 29.6H28.8C29.2418 29.6 29.6 29.2418 29.6 28.8V3.2C29.6 2.75817 29.2418 2.4 28.8 2.4ZM3.2 0C1.43269 0 0 1.43269 0 3.2V28.8C0 30.5673 1.43269 32 3.2 32H28.8C30.5673 32 32 30.5673 32 28.8V3.2C32 1.43269 30.5673 0 28.8 0H3.2Z" fill="#043D81"></path><path fill-rule="evenodd" clip-rule="evenodd" d="M32 8.80002L0 8.80002L0 6.40002L32 6.40002V8.80002Z" fill="#043D81"></path><path d="M6.3999 4.59998C6.3999 5.15226 5.95219 5.59998 5.3999 5.59998C4.84762 5.59998 4.3999 5.15226 4.3999 4.59998C4.3999 4.04769 4.84762 3.59998 5.3999 3.59998C5.95219 3.59998 6.3999 4.04769 6.3999 4.59998Z" fill="#FBB040"></path><path d="M10.7998 4.59998C10.7998 5.15226 10.3521 5.59998 9.7998 5.59998C9.24752 5.59998 8.7998 5.15226 8.7998 4.59998C8.7998 4.04769 9.24752 3.59998 9.7998 3.59998C10.3521 3.59998 10.7998 4.04769 10.7998 4.59998Z" fill="#043D81"></path><path d="M15.2002 4.59998C15.2002 5.15226 14.7525 5.59998 14.2002 5.59998C13.6479 5.59998 13.2002 5.15226 13.2002 4.59998C13.2002 4.04769 13.6479 3.59998 14.2002 3.59998C14.7525 3.59998 15.2002 4.04769 15.2002 4.59998Z" fill="#043D81"></path><path fill-rule="evenodd" clip-rule="evenodd" d="M13.5283 14.4432L14.5933 12.7695C15.1382 11.9121 16.2713 11.7717 17.0162 12.3457C17.1674 12.4623 17.3024 12.6078 17.4132 12.785L18.4636 14.4477C17.7785 14.8362 16.925 15.0667 15.9999 15.0667C15.0712 15.0667 14.2148 14.8345 13.5283 14.4432Z" fill="#043D81"></path><path fill-rule="evenodd" clip-rule="evenodd" d="M13.5999 20.8C14.0417 20.8 14.3999 21.141 14.3999 21.5616L14.3999 33.2385C14.3999 33.6591 14.0417 34 13.5999 34C13.1581 34 12.7999 33.6591 12.7999 33.2385L12.7999 21.5616C12.7999 21.141 13.1581 20.8 13.5999 20.8Z" fill="#043D81"></path><path fill-rule="evenodd" clip-rule="evenodd" d="M18.4002 20.8C18.842 20.8 19.2002 21.141 19.2002 21.5616L19.2002 33.2385C19.2002 33.6591 18.842 34 18.4002 34C17.9584 34 17.6002 33.6591 17.6002 33.2385L17.6002 21.5616C17.6002 21.141 17.9584 20.8 18.4002 20.8Z" fill="#043D81"></path></g><defs><clipPath id="clip0_2100_1684"><rect width="32" height="32" fill="white"></rect></clipPath></defs></svg>