<svg xmlns="http://www.w3.org/2000/svg" width="160" height="160" viewBox="0 0 160 160" fill="none"><path d="M0 8C0 3.58172 3.58172 0 8 0H152C156.418 0 160 3.58172 160 8V152C160 156.418 156.418 160 152 160H8C3.58172 160 0 156.418 0 152V8Z" fill="#FBB040"></path><path d="M79.4066 115.991V105.181C79.4066 101.139 81.5284 97.4213 84.9445 95.4001C93.9426 90.0945 100 80.142 100 68.7457C100 51.0423 85.4023 36.8308 67.864 38.076C53.0463 39.1227 41.0459 51.4574 40.0686 66.6524C39.2674 78.969 45.5537 89.8509 55.1593 95.4633C58.5666 97.4574 60.6004 101.256 60.6004 105.28V116" fill="white"></path><path d="M97.3044 110.121C112.482 110.121 124.786 97.8166 124.786 82.6388C124.786 67.461 112.482 55.157 97.3044 55.157C82.1266 55.157 69.8225 67.461 69.8225 82.6388C69.8225 97.8166 82.1266 110.121 97.3044 110.121Z" fill="#043D81"></path><path fill-rule="evenodd" clip-rule="evenodd" d="M97.3044 57.157C83.2311 57.157 71.8225 68.5656 71.8225 82.6388C71.8225 96.712 83.2311 108.121 97.3044 108.121C111.378 108.121 122.786 96.712 122.786 82.6388C122.786 68.5656 111.378 57.157 97.3044 57.157ZM67.8225 82.6388C67.8225 66.3564 81.022 53.157 97.3044 53.157C113.587 53.157 126.786 66.3564 126.786 82.6388C126.786 98.9212 113.587 112.121 97.3044 112.121C81.022 112.121 67.8225 98.9212 67.8225 82.6388Z" fill="#FBB040"></path><path d="M126.292 106.432C124.877 105.017 122.584 105.016 121.17 106.429C119.757 107.843 119.758 110.136 121.173 111.551L132.319 122.697C133.734 124.112 136.027 124.113 137.441 122.7C138.854 121.286 138.853 118.993 137.438 117.578L126.292 106.432Z" fill="#043D81"></path><path fill-rule="evenodd" clip-rule="evenodd" d="M122.584 107.843C121.954 108.474 121.952 109.501 122.588 110.137L133.733 121.282C134.369 121.918 135.396 121.916 136.027 121.286C136.657 120.655 136.659 119.628 136.023 118.992L124.878 107.847C124.242 107.211 123.215 107.213 122.584 107.843ZM119.759 112.965C117.565 110.77 117.56 107.211 119.756 105.015C121.952 102.819 125.511 102.824 127.706 105.018L138.852 116.164C141.046 118.359 141.051 121.918 138.855 124.114C136.659 126.31 133.099 126.305 130.905 124.111L119.759 112.965Z" fill="#043D81"></path><path fill-rule="evenodd" clip-rule="evenodd" d="M110.073 98.0047C110.854 97.2236 112.12 97.2236 112.901 98.0047L122.023 107.127C122.804 107.908 122.804 109.174 122.023 109.955C121.242 110.736 119.976 110.736 119.195 109.955L110.073 100.833C109.292 100.052 109.292 98.7857 110.073 98.0047Z" fill="#043D81"></path><path fill-rule="evenodd" clip-rule="evenodd" d="M112.742 95.327C113.523 94.5459 114.789 94.5459 115.57 95.327L124.692 104.449C125.473 105.23 125.473 106.496 124.692 107.277C123.911 108.058 122.645 108.058 121.863 107.277L112.742 98.1554C111.96 97.3744 111.96 96.108 112.742 95.327Z" fill="#043D81"></path><path d="M97.3044 96.17C104.777 96.17 110.836 90.1119 110.836 82.6388C110.836 75.1657 104.777 69.1076 97.3044 69.1076C89.8313 69.1076 83.7732 75.1657 83.7732 82.6388C83.7732 90.1119 89.8313 96.17 97.3044 96.17Z" fill="white"></path><path fill-rule="evenodd" clip-rule="evenodd" d="M97.3044 71.1076C90.9359 71.1076 85.7732 76.2703 85.7732 82.6388C85.7732 89.0073 90.9359 94.17 97.3044 94.17C103.673 94.17 108.836 89.0073 108.836 82.6388C108.836 76.2703 103.673 71.1076 97.3044 71.1076ZM81.7732 82.6388C81.7732 74.0612 88.7267 67.1076 97.3044 67.1076C105.882 67.1076 112.836 74.0612 112.836 82.6388C112.836 91.2164 105.882 98.17 97.3044 98.17C88.7267 98.17 81.7732 91.2164 81.7732 82.6388Z" fill="#043D81"></path><path fill-rule="evenodd" clip-rule="evenodd" d="M54 116C54 114.343 55.3431 113 57 113H83C84.6569 113 86 114.343 86 116C86 117.657 84.6569 119 83 119H57C55.3431 119 54 117.657 54 116Z" fill="#E6E6E6"></path><path fill-rule="evenodd" clip-rule="evenodd" d="M54 127C54 125.343 55.3431 124 57 124H83C84.6569 124 86 125.343 86 127C86 128.657 84.6569 130 83 130H57C55.3431 130 54 128.657 54 127Z" fill="#E6E6E6"></path><path fill-rule="evenodd" clip-rule="evenodd" d="M17 70C17 68.3431 18.3431 67 20 67H28C29.6569 67 31 68.3431 31 70C31 71.6569 29.6569 73 28 73H20C18.3431 73 17 71.6569 17 70Z" fill="white"></path><path fill-rule="evenodd" clip-rule="evenodd" d="M70 17C71.6569 17 73 18.3431 73 20V28C73 29.6569 71.6569 31 70 31C68.3431 31 67 29.6569 67 28V20C67 18.3431 68.3431 17 70 17Z" fill="white"></path><path fill-rule="evenodd" clip-rule="evenodd" d="M31.6954 33.0795C32.7561 31.8066 34.6478 31.6347 35.9206 32.6954L41.9206 37.6954C43.1935 38.756 43.3654 40.6477 42.3047 41.9206C41.244 43.1934 39.3524 43.3654 38.0795 42.3047L32.0795 37.3047C30.8067 36.244 30.6347 34.3523 31.6954 33.0795Z" fill="white"></path><path fill-rule="evenodd" clip-rule="evenodd" d="M42.3047 98.0795C43.3654 99.3523 43.1935 101.244 41.9206 102.305L35.9206 107.305C34.6478 108.365 32.7561 108.193 31.6954 106.921C30.6347 105.648 30.8067 103.756 32.0795 102.695L38.0795 97.6954C39.3524 96.6347 41.244 96.8066 42.3047 98.0795Z" fill="white"></path><path fill-rule="evenodd" clip-rule="evenodd" d="M107.305 33.0795C108.365 34.3523 108.193 36.244 106.921 37.3047L100.921 42.3047C99.6478 43.3654 97.7561 43.1934 96.6954 41.9206C95.6347 40.6477 95.8067 38.756 97.0795 37.6954L103.08 32.6954C104.352 31.6347 106.244 31.8066 107.305 33.0795Z" fill="white"></path></svg>